<svg id="top_row" data-name="top row" xmlns="http://www.w3.org/2000/svg" viewBox="0 0 250 350"><defs><style>.cls-1{fill:#2b2b2b;}.cls-2,.cls-4{fill:#c0b073;}.cls-2,.cls-3{stroke:#2b2b2b;stroke-miterlimit:10;}.cls-3{fill:none;}</style></defs><title>back</title><g id="revserse"><rect class="cls-1" width="250" height="350" rx="10" ry="10"/><rect class="cls-2" x="14.81" y="14.45" width="220" height="320" rx="10" ry="10"/><line class="cls-3" x1="39.57" y1="330" x2="39.57" y2="20"/><line class="cls-3" x1="49.57" y1="330.5" x2="49.57" y2="20.5"/><line class="cls-3" x1="200.78" y1="329.75" x2="200.78" y2="19.75"/><line class="cls-3" x1="210.35" y1="329.75" x2="210.35" y2="19.75"/><line class="cls-3" x1="230" y1="40.5" x2="20" y2="40.5"/><line class="cls-3" x1="230" y1="50.5" x2="20" y2="50.5"/><line class="cls-3" x1="230" y1="300.25" x2="20" y2="300.25"/><line class="cls-3" x1="230" y1="310.25" x2="20" y2="310.25"/><line class="cls-3" x1="229.67" y1="35.5" x2="19.67" y2="35.5"/><line class="cls-3" x1="229.67" y1="45.5" x2="19.67" y2="45.5"/><line class="cls-3" x1="229.67" y1="55.5" x2="19.67" y2="55.5"/><line class="cls-3" x1="230" y1="295.25" x2="20" y2="295.25"/><line class="cls-3" x1="230" y1="305.25" x2="20" y2="305.25"/><line class="cls-3" x1="230" y1="315.25" x2="20" y2="315.25"/><line class="cls-3" x1="34.78" y1="329.5" x2="34.78" y2="19.5"/><line class="cls-3" x1="44.35" y1="329.5" x2="44.35" y2="19.5"/><line class="cls-3" x1="54.35" y1="330" x2="54.35" y2="20"/><line class="cls-3" x1="195.57" y1="330.25" x2="195.57" y2="20.25"/><line class="cls-3" x1="205.13" y1="330.25" x2="205.13" y2="20.25"/><line class="cls-3" x1="215.13" y1="329.75" x2="215.13" y2="19.75"/><line class="cls-3" x1="54.29" y1="55.56" x2="205.13" y2="206.4"/><line class="cls-3" x1="54.33" y1="61.13" x2="200.89" y2="207.69"/><line class="cls-3" x1="54.29" y1="66.8" x2="195.63" y2="208.13"/><line class="cls-3" x1="64.71" y1="55.5" x2="214.96" y2="205.76"/><line class="cls-3" x1="58.99" y1="55.5" x2="210.35" y2="206.86"/><line class="cls-3" x1="44.47" y1="143.85" x2="195.31" y2="294.69"/><line class="cls-3" x1="39.65" y1="144.54" x2="190.36" y2="295.25"/><line class="cls-3" x1="34.78" y1="145.41" x2="184.62" y2="295.25"/><line class="cls-3" x1="54.35" y1="143.26" x2="195.57" y2="284.48"/><line class="cls-3" x1="49.57" y1="144.19" x2="195.66" y2="290.28"/><line class="cls-3" x1="195.57" y1="55.42" x2="44.35" y2="206.63"/><line class="cls-3" x1="195.53" y1="60.99" x2="49.57" y2="206.95"/><line class="cls-3" x1="195.57" y1="66.66" x2="54.24" y2="207.99"/><line class="cls-3" x1="185.15" y1="55.36" x2="34.9" y2="205.61"/><line class="cls-3" x1="190.87" y1="55.36" x2="39.51" y2="206.72"/><line class="cls-3" x1="205.13" y1="144.26" x2="54.7" y2="294.69"/><line class="cls-3" x1="210.36" y1="144.54" x2="59.65" y2="295.25"/><line class="cls-3" x1="215.22" y1="145.41" x2="65.39" y2="295.25"/><line class="cls-3" x1="195.66" y1="143.26" x2="54.44" y2="284.48"/><line class="cls-3" x1="200.78" y1="143.85" x2="54.35" y2="290.28"/><path class="cls-4" d="M70.9,202h3.6c2.4-.08,4.08-1.52,4.08-3.36V153.76c-0.08-2-.88-2.48-4.56-2.56H70.9v-1.28H98.66c7.68,0,11.28.72,15.6,3.12,3.92,2.16,6.08,5.52,6.08,9.52a10.08,10.08,0,0,1-3.28,7.44c-2.32,2-4.4,3-9.84,4.4,6,1,8.72,1.92,11.84,4.16a13.34,13.34,0,0,1,5.36,10.72,12.45,12.45,0,0,1-6.56,11.28c-3.92,2.16-7.68,2.72-17.68,2.72H70.9V202Zm23.36-28.16h6.32c3,0,4.32-3.12,4.32-10.24,0-5.44-1-10-2.4-11.28-1-.88-1.92-1.12-4.72-1.12H94.26v22.64Zm0.08,24.56c0.08,2.56.88,3.6,2.88,3.68h4.24c3.36,0,5-3.36,5-10,0-7.6-.4-11-1.68-13.68a6.17,6.17,0,0,0-5.44-3.28h-5V198.4Z"/><path class="cls-3" d="M70.9,202h3.6c2.4-.08,4.08-1.52,4.08-3.36V153.76c-0.08-2-.88-2.48-4.56-2.56H70.9v-1.28H98.66c7.68,0,11.28.72,15.6,3.12,3.92,2.16,6.08,5.52,6.08,9.52a10.08,10.08,0,0,1-3.28,7.44c-2.32,2-4.4,3-9.84,4.4,6,1,8.72,1.92,11.84,4.16a13.34,13.34,0,0,1,5.36,10.72,12.45,12.45,0,0,1-6.56,11.28c-3.92,2.16-7.68,2.72-17.68,2.72H70.9V202Zm23.36-28.16h6.32c3,0,4.32-3.12,4.32-10.24,0-5.44-1-10-2.4-11.28-1-.88-1.92-1.12-4.72-1.12H94.26v22.64Zm0.08,24.56c0.08,2.56.88,3.6,2.88,3.68h4.24c3.36,0,5-3.36,5-10,0-7.6-.4-11-1.68-13.68a6.17,6.17,0,0,0-5.44-3.28h-5V198.4Z"/><path class="cls-4" d="M169.54,187.36c0,3.36-.32,6.16-0.88,7.36-2.24,5.28-11.68,9.6-20.8,9.6-10.8,0-17.92-5.36-17.92-13.52,0-5.76,4.24-10.24,9.76-10.24a9.26,9.26,0,0,1,9.36,9,8.75,8.75,0,0,1-8.56,8.88,11.27,11.27,0,0,1-4.16-.8c1.52,3.44,4.16,5,8.16,5,5.92,0,9.12-3.92,9.12-11.28v-36c0-3.12-1.28-4.08-5.28-4.24H146v-1.28h29.76v1.28H173.6c-2.72,0-4,1.28-4.08,3.84v32.32Z"/><path class="cls-3" d="M169.54,187.36c0,3.36-.32,6.16-0.88,7.36-2.24,5.28-11.68,9.6-20.8,9.6-10.8,0-17.92-5.36-17.92-13.52,0-5.76,4.24-10.24,9.76-10.24a9.26,9.26,0,0,1,9.36,9,8.75,8.75,0,0,1-8.56,8.88,11.27,11.27,0,0,1-4.16-.8c1.52,3.44,4.16,5,8.16,5,5.92,0,9.12-3.92,9.12-11.28v-36c0-3.12-1.28-4.08-5.28-4.24H146v-1.28h29.76v1.28H173.6c-2.72,0-4,1.28-4.08,3.84v32.32Z"/></g></svg>