<svg id="bottom_row" data-name="bottom row" xmlns="http://www.w3.org/2000/svg" viewBox="0 0 250 350"><defs><style>.cls-1{fill:#fff;}.cls-2{isolation:isolate;}.cls-3{fill:#2b2b2b;}.cls-4{fill:none;stroke:#2b2b2b;stroke-miterlimit:10;}</style></defs><title>c-10</title><g id="_10_spades" data-name=" 10 spades"><rect class="cls-1" width="250" height="350" rx="10" ry="10"/><g class="cls-2"><path class="cls-3" d="M14.41,34.56h0.8c1.28-.08,1.92-0.88,1.92-2.52V15.76c0-2-.24-2.16-2.48-2.24V13.16a19.36,19.36,0,0,0,8.52-4.32h0.36V32.72a1.69,1.69,0,0,0,1.8,1.84h1.2V35H14.41V34.56Z"/><path class="cls-3" d="M44,12.32c2,2.16,3.24,6,3.24,9.92,0,7.36-4.16,13.4-9.24,13.4-5.6,0-9.52-5.4-9.52-13.08,0-3.64.72-6.56,2.2-8.76C32.57,11,35.25,9.36,38,9.36A8.73,8.73,0,0,1,44,12.32Zm-8.68-.72c-0.4,1.12-.6,3.68-0.6,7.84,0,7.08.28,12.48,0.76,13.88s1.16,1.92,2.24,1.92A2.36,2.36,0,0,0,40,33.56c0.52-1.24.76-4.76,0.76-10.76a64.85,64.85,0,0,0-.6-10.68c-0.36-1.56-1.28-2.48-2.52-2.48A2.61,2.61,0,0,0,35.37,11.6Z"/></g><path class="cls-4" d="M14.41,34.56h0.8c1.28-.08,1.92-0.88,1.92-2.52V15.76c0-2-.24-2.16-2.48-2.24V13.16a19.36,19.36,0,0,0,8.52-4.32h0.36V32.72a1.69,1.69,0,0,0,1.53,1.84h1.47V35H14.41V34.56Z"/><path class="cls-4" d="M44,12.32c2,2.16,3.24,6,3.24,9.92,0,7.36-4.16,13.4-9.24,13.4-5.6,0-9.52-5.4-9.52-13.08,0-3.64.72-6.56,2.2-8.76C32.57,11,35.25,9.36,38,9.36A8.73,8.73,0,0,1,44,12.32Zm-8.68-.72c-0.4,1.12-.6,3.68-0.6,7.84,0,7.08.28,12.48,0.76,13.88s1.16,1.92,2.24,1.92A2.36,2.36,0,0,0,40,33.56c0.52-1.24.76-4.76,0.76-10.76a64.85,64.85,0,0,0-.6-10.68c-0.36-1.56-1.28-2.48-2.52-2.48a2.61,2.61,0,0,0-2.27,2h0Z"/><g class="cls-2"><path class="cls-3" d="M233.92,314.52h-0.8c-1.28.08-1.92,0.88-1.92,2.52v16.28c0,2,.24,2.16,2.48,2.24v0.36a19.36,19.36,0,0,0-8.52,4.32H224.8V316.36a1.69,1.69,0,0,0-1.8-1.84h-1.2V314h12.12v0.48Z"/><path class="cls-3" d="M204.28,336.75c-2-2.16-3.24-6-3.24-9.92,0-7.36,4.16-13.4,9.24-13.4,5.6,0,9.52,5.4,9.52,13.08a15.45,15.45,0,0,1-2.2,8.76c-1.84,2.8-4.52,4.44-7.24,4.44A8.73,8.73,0,0,1,204.28,336.75Zm8.68,0.72c0.4-1.12.6-3.68,0.6-7.84,0-7.08-.28-12.48-0.76-13.88s-1.16-1.92-2.24-1.92a2.36,2.36,0,0,0-2.24,1.68c-0.52,1.24-.76,4.76-0.76,10.76a64.91,64.91,0,0,0,.6,10.68c0.36,1.56,1.28,2.48,2.52,2.48A2.61,2.61,0,0,0,213,337.48Z"/></g><path class="cls-4" d="M233.92,314.52h-0.8c-1.28.08-1.92,0.88-1.92,2.52v16.28c0,2,.24,2.16,2.48,2.24v0.36a19.36,19.36,0,0,0-8.52,4.32H224.8V316.36a1.69,1.69,0,0,0-1.53-1.84H221.8V314h12.12v0.52Z"/><path class="cls-4" d="M204.28,336.75c-2-2.16-3.24-6-3.24-9.92,0-7.36,4.16-13.4,9.24-13.4,5.6,0,9.52,5.4,9.52,13.08a15.45,15.45,0,0,1-2.2,8.76c-1.84,2.8-4.52,4.44-7.24,4.44A8.73,8.73,0,0,1,204.28,336.75Zm8.68,0.72c0.4-1.12.6-3.68,0.6-7.84,0-7.08-.28-12.48-0.76-13.88s-1.16-1.92-2.24-1.92a2.36,2.36,0,0,0-2.24,1.68c-0.52,1.24-.76,4.76-0.76,10.76a64.91,64.91,0,0,0,.6,10.68c0.36,1.56,1.28,2.48,2.52,2.48a2.61,2.61,0,0,0,2.32-1.95h0Z"/><g id="Page-1"><g id="Fill-87"><path class="cls-3" d="M118.34,98.86c5.95-7.27,4.65-17.94,4.65-17.94-0.89,4.92-5.84,7.85-7.87,8.17a10.45,10.45,0,0,1-10.94-4.85,10.83,10.83,0,0,1,3.28-14.83,10,10,0,0,1,11.62.56c1,0.21.41-1,.41-1a9.74,9.74,0,0,1-5.4-9.49c1.23-9.84,10.9-9.62,10.9-9.62s9.67-.22,10.9,9.62a9.76,9.76,0,0,1-5.4,9.49s-0.54,1.17.41,1a10,10,0,0,1,11.63-.56,10.84,10.84,0,0,1,3.28,14.83,10.47,10.47,0,0,1-10.94,4.85c-2-.33-7-3.25-7.86-8.17,0,0-1.3,10.67,4.65,17.94H118.34"/></g></g><g id="Page-1-2"><g id="Fill-87-2"><path class="cls-3" d="M117.34,168.29c5.95-7.27,4.65-17.94,4.65-17.94-0.89,4.92-5.84,7.85-7.87,8.17a10.45,10.45,0,0,1-10.94-4.85,10.83,10.83,0,0,1,3.28-14.83,10,10,0,0,1,11.62.56c1,0.21.41-1,.41-1a9.74,9.74,0,0,1-5.4-9.49c1.23-9.84,10.9-9.62,10.9-9.62s9.67-.22,10.9,9.62a9.76,9.76,0,0,1-5.4,9.49s-0.54,1.17.41,1a10,10,0,0,1,11.63-.56,10.84,10.84,0,0,1,3.28,14.83,10.47,10.47,0,0,1-10.94,4.85c-2-.33-7-3.25-7.86-8.17,0,0-1.3,10.67,4.65,17.94H117.34"/></g></g><g id="Page-1-3"><g id="Fill-87-3"><path class="cls-3" d="M117.34,236.49c5.95-7.27,4.65-17.94,4.65-17.94-0.89,4.92-5.84,7.85-7.87,8.17a10.45,10.45,0,0,1-10.94-4.85A10.83,10.83,0,0,1,106.46,207a10,10,0,0,1,11.62.56c1,0.21.41-1,.41-1a9.74,9.74,0,0,1-5.4-9.49c1.23-9.84,10.9-9.62,10.9-9.62s9.67-.22,10.9,9.62a9.76,9.76,0,0,1-5.4,9.49s-0.54,1.17.41,1a10,10,0,0,1,11.63-.56,10.84,10.84,0,0,1,3.28,14.83,10.47,10.47,0,0,1-10.94,4.85c-2-.33-7-3.25-7.86-8.17,0,0-1.3,10.67,4.65,17.94H117.34"/></g></g><g id="Page-1-4"><g id="Fill-87-4"><path class="cls-3" d="M117.34,304.57c5.95-7.27,4.65-17.94,4.65-17.94-0.89,4.92-5.84,7.85-7.87,8.17a10.45,10.45,0,0,1-10.94-4.8,10.83,10.83,0,0,1,3.28-14.83,10,10,0,0,1,11.62.56c1,0.21.41-1,.41-1a9.74,9.74,0,0,1-5.4-9.49c1.23-9.84,10.9-9.62,10.9-9.62s9.67-.22,10.9,9.62a9.76,9.76,0,0,1-5.4,9.49s-0.54,1.17.41,1a10,10,0,0,1,11.63-.56A10.84,10.84,0,0,1,144.81,290a10.47,10.47,0,0,1-10.94,4.85c-2-.33-7-3.25-7.86-8.17,0,0-1.3,10.67,4.65,17.94H117.34"/></g></g><g id="Page-1-5"><g id="Fill-87-5"><path class="cls-3" d="M79.34,134.27c6-7.27,4.66-17.94,4.66-17.94-0.89,4.92-5.84,7.85-7.87,8.17a10.45,10.45,0,0,1-10.94-4.85,10.83,10.83,0,0,1,3.28-14.83,10,10,0,0,1,11.62.56c1,0.21.41-1,.41-1a9.74,9.74,0,0,1-5.4-9.49C76.32,85,86,85.27,86,85.27s9.67-.22,10.9,9.62a9.76,9.76,0,0,1-5.4,9.49s-0.54,1.17.41,1a10,10,0,0,1,11.63-.56,10.84,10.84,0,0,1,3.28,14.83,10.47,10.47,0,0,1-10.94,4.85c-2-.33-7-3.25-7.86-8.17,0,0-1.3,10.67,4.65,17.94H79.34"/></g></g><g id="Page-1-6"><g id="Fill-87-6"><path class="cls-3" d="M157.17,134.27c5.95-7.27,4.65-17.94,4.65-17.94-0.89,4.92-5.84,7.85-7.87,8.17A10.45,10.45,0,0,1,143,119.65a10.83,10.83,0,0,1,3.28-14.83,10,10,0,0,1,11.62.56c1,0.21.41-1,.41-1a9.74,9.74,0,0,1-5.4-9.49c1.23-9.84,10.9-9.62,10.9-9.62s9.67-.22,10.9,9.62a9.76,9.76,0,0,1-5.4,9.49s-0.54,1.17.41,1a10,10,0,0,1,11.63-.56,10.84,10.84,0,0,1,3.28,14.83,10.47,10.47,0,0,1-10.94,4.85c-2-.33-7-3.25-7.86-8.17,0,0-1.3,10.67,4.65,17.94H157.17"/></g></g><g id="Page-1-7"><g id="Fill-87-7"><path class="cls-3" d="M79.34,202.11c5.95-7.27,4.65-17.94,4.65-17.94-0.89,4.92-5.84,7.85-7.87,8.17a10.45,10.45,0,0,1-10.94-4.85,10.83,10.83,0,0,1,3.28-14.83,10,10,0,0,1,11.62.56c1,0.21.41-1,.41-1a9.74,9.74,0,0,1-5.4-9.49c1.23-9.84,10.9-9.62,10.9-9.62s9.67-.22,10.9,9.62a9.76,9.76,0,0,1-5.4,9.49s-0.54,1.17.41,1a10,10,0,0,1,11.63-.56,10.84,10.84,0,0,1,3.28,14.83,10.47,10.47,0,0,1-10.94,4.85c-2-.33-7-3.25-7.86-8.17,0,0-1.3,10.67,4.65,17.94H79.34"/></g></g><g id="Page-1-8"><g id="Fill-87-8"><path class="cls-3" d="M157.17,202.11c5.95-7.27,4.65-17.94,4.65-17.94-0.89,4.92-5.84,7.85-7.87,8.17A10.45,10.45,0,0,1,143,187.49a10.83,10.83,0,0,1,3.28-14.83,10,10,0,0,1,11.62.56c1,0.21.41-1,.41-1a9.74,9.74,0,0,1-5.4-9.49c1.23-9.84,10.9-9.62,10.9-9.62s9.67-.22,10.9,9.62a9.76,9.76,0,0,1-5.4,9.49s-0.54,1.17.41,1a10,10,0,0,1,11.63-.56,10.84,10.84,0,0,1,3.28,14.83,10.47,10.47,0,0,1-10.94,4.85c-2-.33-7-3.25-7.86-8.17,0,0-1.3,10.67,4.65,17.94H157.17"/></g></g><g id="Page-1-9"><g id="Fill-87-9"><path class="cls-3" d="M79.34,274.54c6-7.27,4.66-17.94,4.66-17.94-0.89,4.92-5.84,7.85-7.87,8.17a10.45,10.45,0,0,1-10.94-4.85,10.83,10.83,0,0,1,3.28-14.83,10,10,0,0,1,11.62.56c1,0.21.41-1,.41-1a9.74,9.74,0,0,1-5.4-9.49c1.23-9.84,10.9-9.62,10.9-9.62s9.67-.22,10.9,9.62a9.76,9.76,0,0,1-5.4,9.49s-0.54,1.17.41,1a10,10,0,0,1,11.63-.56,10.84,10.84,0,0,1,3.28,14.83,10.47,10.47,0,0,1-10.94,4.85c-2-.33-7-3.25-7.86-8.17,0,0-1.3,10.67,4.65,17.94H79.34"/></g></g><g id="Page-1-10"><g id="Fill-87-10"><path class="cls-3" d="M157.17,274.54c5.95-7.27,4.65-17.94,4.65-17.94-0.89,4.92-5.84,7.85-7.87,8.17A10.45,10.45,0,0,1,143,259.92a10.83,10.83,0,0,1,3.28-14.83,10,10,0,0,1,11.62.56c1,0.21.41-1,.41-1a9.74,9.74,0,0,1-5.4-9.49c1.23-9.84,10.9-9.62,10.9-9.62s9.67-.22,10.9,9.62a9.76,9.76,0,0,1-5.4,9.49s-0.54,1.17.41,1a10,10,0,0,1,11.63-.56,10.84,10.84,0,0,1,3.28,14.83,10.47,10.47,0,0,1-10.94,4.85c-2-.33-7-3.25-7.86-8.17,0,0-1.3,10.67,4.65,17.94H157.17"/></g></g></g></svg>