<svg id="top_row" data-name="top row" xmlns="http://www.w3.org/2000/svg" viewBox="0 0 250 350"><defs><style>.cls-1{fill:#fff;}.cls-2{isolation:isolate;}.cls-3{fill:#2b2b2b;}.cls-4{fill:none;stroke:#2b2b2b;stroke-miterlimit:10;}</style></defs><title>c-4</title><g id="_4_spades" data-name=" 4 spades"><rect class="cls-1" width="250" height="350" rx="10" ry="10"/><g class="cls-2"><path class="cls-3" d="M20.29,10.64h5.24V27.12h1.76c1,0,1.52-.52,2-2h0.44l-0.8,3.32h-3.4V33c-0.08,2.2.12,2.48,1.76,2.6h1.08V36H15.45V35.56h1.68c1.48-.16,1.68-0.52,1.72-2.8V28.48H10ZM18.85,27.12V14L11.33,27.12h7.52Z"/></g><path class="cls-4" d="M20.29,10.64h5.24V27.12h1.76c1,0,1.52-.52,2-2h0.44l-0.8,3.32h-3.4V33c-0.08,2.2.12,2.48,1.76,2.6h1.08V36H15.45V35.56h1.68c1.48-.16,1.68-0.52,1.72-2.8V28.48H10ZM18.85,27.12V14L11.33,27.12h7.52Z"/><g class="cls-2"><path class="cls-3" d="M228,340.43H222.8V324H221c-1,0-1.52.52-2,2H218.6l0.8-3.32h3.4v-4.48c0.08-2.2-.12-2.48-1.76-2.6H220V315h12.92v0.48H231.2c-1.48.16-1.68,0.52-1.72,2.8v4.28h8.84ZM229.48,324v13.12L237,324h-7.52Z"/></g><path class="cls-4" d="M228,340.43h-5.2V324H221c-1,0-1.52.52-2,2h-0.4l0.8-3.32h3.4V318.2c0.08-2.2-.12-2.48-1.76-2.6h-1V315h12.92v0.48H231.2c-1.48.16-1.68,0.52-1.72,2.8v4.28h8.84ZM229.48,324v13.12L237,324h-7.52Z"/><g id="Page-1"><g id="Fill-87"><path class="cls-3" d="M88.34,168.27c6-7.27,4.66-17.94,4.66-17.94-0.89,4.92-5.84,7.85-7.87,8.17a10.45,10.45,0,0,1-10.94-4.85,10.83,10.83,0,0,1,3.28-14.83,10,10,0,0,1,11.62.56c1,0.21.41-1,.41-1a9.74,9.74,0,0,1-5.4-9.49C85.32,119,95,119.27,95,119.27s9.67-.22,10.9,9.62a9.76,9.76,0,0,1-5.4,9.49s-0.54,1.17.41,1a10,10,0,0,1,11.63-.56,10.84,10.84,0,0,1,3.28,14.83,10.47,10.47,0,0,1-10.94,4.85c-2-.33-7-3.25-7.86-8.17,0,0-1.3,10.67,4.65,17.94H88.34"/></g></g><g id="Page-1-2"><g id="Fill-87-2"><path class="cls-3" d="M148,168.27c5.95-7.27,4.65-17.94,4.65-17.94-0.89,4.92-5.84,7.85-7.87,8.17a10.45,10.45,0,0,1-10.94-4.85,10.83,10.83,0,0,1,3.28-14.83,10,10,0,0,1,11.62.56c1,0.21.41-1,.41-1a9.74,9.74,0,0,1-5.4-9.49c1.23-9.84,10.9-9.62,10.9-9.62s9.67-.22,10.9,9.62a9.76,9.76,0,0,1-5.4,9.49s-0.54,1.17.41,1a10,10,0,0,1,11.63-.56,10.84,10.84,0,0,1,3.28,14.83,10.47,10.47,0,0,1-10.94,4.85c-2-.33-7-3.25-7.86-8.17,0,0-1.3,10.67,4.65,17.94H148"/></g></g><g id="Page-1-3"><g id="Fill-87-3"><path class="cls-3" d="M148,234.94c5.95-7.27,4.65-17.94,4.65-17.94-0.89,4.92-5.84,7.85-7.87,8.17a10.45,10.45,0,0,1-10.94-4.85,10.83,10.83,0,0,1,3.28-14.83,10,10,0,0,1,11.62.56c1,0.21.41-1,.41-1a9.74,9.74,0,0,1-5.4-9.49c1.23-9.84,10.9-9.62,10.9-9.62s9.67-.22,10.9,9.62a9.76,9.76,0,0,1-5.4,9.49s-0.54,1.17.41,1a10,10,0,0,1,11.63-.56,10.84,10.84,0,0,1,3.28,14.83,10.47,10.47,0,0,1-10.94,4.85c-2-.33-7-3.25-7.86-8.17,0,0-1.3,10.67,4.65,17.94H148"/></g></g><g id="Page-1-4"><g id="Fill-87-4"><path class="cls-3" d="M88.34,234.94C94.29,227.67,93,217,93,217c-0.89,4.92-5.84,7.85-7.87,8.17a10.45,10.45,0,0,1-10.94-4.85,10.83,10.83,0,0,1,3.28-14.83,10,10,0,0,1,11.62.56c1,0.21.41-1,.41-1a9.74,9.74,0,0,1-5.35-9.45C85.37,185.76,95,186,95,186s9.67-.22,10.9,9.62a9.76,9.76,0,0,1-5.4,9.49s-0.54,1.17.41,1a10,10,0,0,1,11.63-.56,10.84,10.84,0,0,1,3.28,14.83,10.47,10.47,0,0,1-10.94,4.85c-2-.33-7-3.25-7.86-8.17,0,0-1.3,10.67,4.65,17.94H88.34"/></g></g></g></svg>