<svg id="top_row" data-name="top row" xmlns="http://www.w3.org/2000/svg" viewBox="0 0 250 350"><defs><style>.cls-1{fill:#fff;}.cls-2{isolation:isolate;}.cls-3{fill:#2b2b2b;}.cls-4{fill:none;stroke:#2b2b2b;stroke-miterlimit:10;}</style></defs><title>c-5</title><g id="_5_spades" data-name=" 5 spades"><rect class="cls-1" width="250" height="350" rx="10" ry="10"/><g class="cls-2"><path class="cls-3" d="M27.89,11c-0.72,3.76-3.48,5.52-8.64,5.52a27,27,0,0,1-4-.28C15,17.2,15,17.28,14.65,19s-0.48,2.2-.92,3.8a6.1,6.1,0,0,1,2.44-2,10.75,10.75,0,0,1,4.32-.92c5,0,9,3.52,9,7.84,0,5.16-4.16,8.8-10.12,8.8-4.76,0-8-2.6-8-6.32,0-2.36,1.52-4.12,3.6-4.12a3.4,3.4,0,0,1,3.44,3.48,3.16,3.16,0,0,1-3.2,3.32,3.41,3.41,0,0,1-2.52-1c0.24,2.64,2.44,4.2,5.8,4.2,1.64,0,2.44-.4,3.08-1.52a13.75,13.75,0,0,0,1-6c0-3-.28-4.6-1-6a3.75,3.75,0,0,0-3.28-1.76c-2.08,0-3.56,1-4.92,3.52H13a76.57,76.57,0,0,0,1.76-7.76l0.52-3.32c0-.24.24-1.32,0.4-2.44a29.17,29.17,0,0,0,6.76.6,18.38,18.38,0,0,0,5.2-.56Z"/></g><path class="cls-4" d="M27.89,11c-0.72,3.76-3.48,5.52-8.64,5.52a27,27,0,0,1-4-.28c-0.25,1-.25,1-0.6,2.76s-0.48,2.2-.92,3.8a6.1,6.1,0,0,1,2.44-2,10.75,10.75,0,0,1,4.32-.92c5,0,9,3.52,9,7.84,0,5.16-4.16,8.8-10.12,8.8-4.76,0-8-2.6-8-6.32,0-2.36,1.52-4.12,3.6-4.12a3.4,3.4,0,0,1,3.44,3.36s0,0.08,0,.12a3.16,3.16,0,0,1-3,3.32h-0.2a3.41,3.41,0,0,1-2.52-1c0.24,2.64,2.44,4.2,5.8,4.2,1.64,0,2.44-.4,3.08-1.52a13.75,13.75,0,0,0,1-6c0-3-.28-4.6-1-6a3.75,3.75,0,0,0-3.28-1.76c-2.08,0-3.56,1-4.92,3.52H13a76.57,76.57,0,0,0,1.76-7.76l0.52-3.32c0-.24.24-1.32,0.4-2.44a29.17,29.17,0,0,0,6.76.6,18.38,18.38,0,0,0,5.2-.56Z"/><g class="cls-2"><path class="cls-3" d="M220.44,340.12c0.72-3.76,3.48-5.52,8.64-5.52a27,27,0,0,1,4,.28c0.28-1,.28-1.08.64-2.8s0.48-2.2.92-3.8a6.1,6.1,0,0,1-2.44,2,10.75,10.75,0,0,1-4.32.92c-5,0-9-3.52-9-7.84,0-5.16,4.16-8.8,10.12-8.8,4.76,0,8,2.6,8,6.32,0,2.36-1.52,4.12-3.6,4.12a3.4,3.4,0,0,1-3.44-3.48,3.16,3.16,0,0,1,3.2-3.32,3.41,3.41,0,0,1,2.52,1c-0.24-2.64-2.44-4.2-5.8-4.2-1.64,0-2.44.4-3.08,1.52a13.76,13.76,0,0,0-1,6c0,3,.28,4.6,1,6a3.75,3.75,0,0,0,3.28,1.76c2.08,0,3.56-1,4.92-3.52h0.32a77,77,0,0,0-1.76,7.76L233,337.83c0,0.24-.24,1.32-0.4,2.44a29.16,29.16,0,0,0-6.76-.6,18.38,18.38,0,0,0-5.2.56Z"/></g><path class="cls-4" d="M220.44,340.12c0.72-3.76,3.48-5.52,8.64-5.52a27,27,0,0,1,4,.28c0.28-1,.28-1.08.64-2.8s0.48-2.2.92-3.8a6.1,6.1,0,0,1-2.44,2,10.75,10.75,0,0,1-4.32.92c-5,0-9-3.52-9-7.84,0-5.16,4.16-8.8,10.12-8.8,4.76,0,8,2.6,8,6.32,0,2.36-1.52,4.12-3.6,4.12a3.4,3.4,0,0,1-3.44-3.36s0-.08,0-0.12a3.16,3.16,0,0,1,3-3.32h0.2a3.41,3.41,0,0,1,2.52,1c-0.24-2.64-2.44-4.2-5.8-4.2-1.64,0-2.44.4-3.08,1.52a13.76,13.76,0,0,0-1,6c0,3,.28,4.6,1,6a3.75,3.75,0,0,0,3.28,1.76c2.08,0,3.56-1,4.92-3.52h0.32a77,77,0,0,0-1.76,7.76L233,337.83c0,0.24-.24,1.32-0.4,2.44a29.16,29.16,0,0,0-6.76-.6,18.38,18.38,0,0,0-5.2.56Z"/><g id="Page-1"><g id="Fill-87"><path class="cls-3" d="M118.34,200.93c6-7.27,4.66-17.93,4.66-17.93-0.89,4.92-5.84,7.85-7.87,8.17a10.45,10.45,0,0,1-10.94-4.85,10.83,10.83,0,0,1,3.28-14.83,10,10,0,0,1,11.62.56c1,0.21.41-1,.41-1a9.74,9.74,0,0,1-5.4-9.49c1.23-9.84,10.9-9.62,10.9-9.62s9.67-.22,10.9,9.62a9.76,9.76,0,0,1-5.4,9.49s-0.54,1.17.41,1a10,10,0,0,1,11.63-.56,10.84,10.84,0,0,1,3.28,14.83,10.47,10.47,0,0,1-10.94,4.85c-2-.33-7-3.25-7.86-8.17,0,0-1.3,10.67,4.65,17.94H118.34"/></g></g><g id="Page-1-2"><g id="Fill-87-2"><path class="cls-3" d="M79.34,168.24C85.29,161,84,150.3,84,150.3c-0.89,4.92-5.84,7.85-7.87,8.17a10.45,10.45,0,0,1-10.94-4.85,10.83,10.83,0,0,1,3.28-14.83,10,10,0,0,1,11.62.56c1,0.21.41-1,.41-1a9.74,9.74,0,0,1-5.4-9.49C76.32,119,86,119.24,86,119.24s9.67-.22,10.9,9.62a9.76,9.76,0,0,1-5.4,9.49s-0.54,1.17.41,1a10,10,0,0,1,11.63-.56,10.84,10.84,0,0,1,3.28,14.83,10.47,10.47,0,0,1-10.94,4.85c-2-.33-7-3.25-7.86-8.17,0,0-1.3,10.67,4.65,17.94H79.34"/></g></g><g id="Page-1-3"><g id="Fill-87-3"><path class="cls-3" d="M157,168.24c5.95-7.27,4.65-17.94,4.65-17.94-0.89,4.92-5.84,7.85-7.87,8.17a10.45,10.45,0,0,1-10.94-4.85,10.83,10.83,0,0,1,3.28-14.83,10,10,0,0,1,11.62.56c1,0.21.41-1,.41-1a9.74,9.74,0,0,1-5.4-9.49c1.23-9.84,10.9-9.62,10.9-9.62s9.67-.22,10.9,9.62a9.76,9.76,0,0,1-5.4,9.49s-0.54,1.17.41,1a10,10,0,0,1,11.63-.56,10.84,10.84,0,0,1,3.28,14.83,10.47,10.47,0,0,1-10.94,4.85c-2-.33-7-3.25-7.86-8.17,0,0-1.3,10.67,4.65,17.94H157"/></g></g><g id="Page-1-4"><g id="Fill-87-4"><path class="cls-3" d="M79.34,234.94C85.29,227.67,84,217,84,217c-0.89,4.92-5.84,7.85-7.87,8.17a10.45,10.45,0,0,1-10.94-4.85,10.83,10.83,0,0,1,3.28-14.83,10,10,0,0,1,11.62.56c1,0.21.41-1,.41-1a9.74,9.74,0,0,1-5.4-9.49c1.23-9.84,10.9-9.62,10.9-9.62s9.67-.22,10.9,9.62A9.76,9.76,0,0,1,91.5,205s-0.54,1.17.41,1a10,10,0,0,1,11.63-.56,10.84,10.84,0,0,1,3.28,14.83,10.47,10.47,0,0,1-10.94,4.85c-2-.33-7-3.25-7.86-8.17,0,0-1.3,10.67,4.65,17.94H79.34"/></g></g><g id="Page-1-5"><g id="Fill-87-5"><path class="cls-3" d="M157,234.94c5.95-7.27,4.65-17.94,4.65-17.94-0.89,4.92-5.84,7.85-7.87,8.17a10.45,10.45,0,0,1-10.94-4.85,10.83,10.83,0,0,1,3.28-14.83,10,10,0,0,1,11.62.56c1,0.21.41-1,.41-1a9.74,9.74,0,0,1-5.4-9.49c1.23-9.84,10.9-9.62,10.9-9.62s9.67-.22,10.9,9.62a9.76,9.76,0,0,1-5.4,9.49s-0.54,1.17.41,1a10,10,0,0,1,11.63-.56,10.84,10.84,0,0,1,3.28,14.83,10.47,10.47,0,0,1-10.94,4.85c-2-.33-7-3.25-7.86-8.17,0,0-1.3,10.67,4.65,17.94H157"/></g></g></g></svg>