<svg id="top_row" data-name="top row" xmlns="http://www.w3.org/2000/svg" viewBox="0 0 250 350"><defs><style>.cls-1{fill:#fff;}.cls-2{isolation:isolate;}.cls-3{fill:#2b2b2b;}.cls-4{fill:none;stroke:#2b2b2b;stroke-miterlimit:10;}</style></defs><title>c-6</title><g id="_6_spades" data-name=" 6 spades"><rect class="cls-1" width="250" height="350" rx="10" ry="10"/><g class="cls-2"><path class="cls-3" d="M22.25,8.08a3.18,3.18,0,0,0-3,1.72c-1.28,2.4-1.56,4.08-1.56,9.72,0,0.2,0,1.28,0,2.24a4.8,4.8,0,0,1,1.2-2.2A4,4,0,0,1,22.53,18a6.81,6.81,0,0,1,7.12,7,8.75,8.75,0,0,1-8.48,9c-5.6,0-9.68-5.24-9.68-12.36,0-7.88,4.76-13.8,11-13.8,3.6,0,6.16,2,6.16,4.84a3.39,3.39,0,0,1-3.4,3.56,3.07,3.07,0,0,1-3.12-3.2,3.62,3.62,0,0,1,1.16-2.68,2.59,2.59,0,0,1,1.92-.72A3.16,3.16,0,0,0,22.25,8.08ZM17.89,24.92a23.06,23.06,0,0,0,1,6.92,2.27,2.27,0,0,0,2.28,1.6,2.19,2.19,0,0,0,2.12-1.2,30.22,30.22,0,0,0,.6-6.92,16,16,0,0,0-1.08-5.92,1.68,1.68,0,0,0-1.48-.88C19.21,18.52,17.89,21,17.89,24.92Z" transform="translate(0 -0.02)"/></g><path class="cls-4" d="M22.25,8.08a3.18,3.18,0,0,0-3,1.72c-1.28,2.4-1.56,4.08-1.56,9.72v2.24a4.8,4.8,0,0,1,1.2-2.2A4,4,0,0,1,22.53,18a6.81,6.81,0,0,1,7.12,6.49q0,0.25,0,.51a8.75,8.75,0,0,1-8.48,9c-5.6,0-9.68-5.24-9.68-12.36,0-7.88,4.76-13.8,11-13.8,3.6,0,6.16,2,6.16,4.84a3.39,3.39,0,0,1-3.22,3.56H25.25a3.07,3.07,0,0,1-3.12-3q0-.09,0-0.18a3.62,3.62,0,0,1,1.16-2.68,2.59,2.59,0,0,1,2-.82A3.16,3.16,0,0,0,22.25,8.08ZM17.89,24.92a23.06,23.06,0,0,0,1,6.92,2.27,2.27,0,0,0,2.28,1.6,2.19,2.19,0,0,0,2.12-1.2,30.22,30.22,0,0,0,.6-6.92,16,16,0,0,0-1.08-5.92,1.68,1.68,0,0,0-1.48-.9C19.21,18.5,17.89,21,17.89,24.92Z" transform="translate(0 -0.02)"/><g class="cls-2"><path class="cls-3" d="M226.08,337.43a3.18,3.18,0,0,0,3-1.72c1.28-2.4,1.56-4.08,1.56-9.72,0-.2,0-1.28,0-2.24a4.81,4.81,0,0,1-1.2,2.2,4,4,0,0,1-3.64,1.6,6.81,6.81,0,0,1-7.12-7,8.75,8.75,0,0,1,8.48-9c5.6,0,9.68,5.24,9.68,12.36,0,7.88-4.76,13.8-11,13.8-3.6,0-6.16-2-6.16-4.84a3.39,3.39,0,0,1,3.4-3.56,3.07,3.07,0,0,1,3.12,3.2,3.62,3.62,0,0,1-1.16,2.68,2.58,2.58,0,0,1-1.92.72A3.16,3.16,0,0,0,226.08,337.43Zm4.36-16.84a23,23,0,0,0-1-6.92,2.27,2.27,0,0,0-2.28-1.6,2.19,2.19,0,0,0-2.12,1.2,30.21,30.21,0,0,0-.6,6.92,16,16,0,0,0,1.08,5.92A1.68,1.68,0,0,0,227,327C229.12,327,230.44,324.55,230.44,320.59Z" transform="translate(0 -0.02)"/></g><path class="cls-4" d="M226.08,337.43a3.18,3.18,0,0,0,3-1.72c1.28-2.4,1.56-4.08,1.56-9.72v-2.24a4.81,4.81,0,0,1-1.2,2.2,4,4,0,0,1-3.64,1.6,6.81,6.81,0,0,1-7.12-6.49q0-.25,0-0.51a8.75,8.75,0,0,1,8.48-9c5.6,0,9.68,5.24,9.68,12.36,0,7.88-4.76,13.8-11,13.8-3.6,0-6.16-2-6.16-4.84a3.39,3.39,0,0,1,3.22-3.56h0.18a3.07,3.07,0,0,1,3.12,3q0,0.09,0,.18a3.62,3.62,0,0,1-1.16,2.68,2.58,2.58,0,0,1-1.92.72A3.16,3.16,0,0,0,226.08,337.43Zm4.36-16.84a23,23,0,0,0-1-6.92,2.27,2.27,0,0,0-2.28-1.6,2.19,2.19,0,0,0-2.12,1.2,30.21,30.21,0,0,0-.6,6.92,16,16,0,0,0,1.08,5.92A1.68,1.68,0,0,0,227,327C229.12,327,230.44,324.5,230.44,320.59Z" transform="translate(0 -0.02)"/><g id="Page-1"><g id="Fill-87"><path class="cls-3" d="M88.5,134.3c5.95-7.27,4.65-17.94,4.65-17.94-0.89,4.92-5.84,7.85-7.87,8.17a10.45,10.45,0,0,1-10.94-4.85,10.83,10.83,0,0,1,3.28-14.83,10,10,0,0,1,11.62.56c1,0.21.41-1,.41-1a9.74,9.74,0,0,1-5.4-9.49c1.23-9.84,10.9-9.62,10.9-9.62s9.67-.22,10.9,9.62a9.76,9.76,0,0,1-5.4,9.49s-0.54,1.17.41,1a10,10,0,0,1,11.63-.56A10.84,10.84,0,0,1,116,119.68a10.47,10.47,0,0,1-11,4.82c-2-.33-7-3.25-7.86-8.17,0,0-1.3,10.67,4.65,17.94H88.5" transform="translate(0 -0.02)"/></g></g><g id="Page-1-2"><g id="Fill-87-2"><path class="cls-3" d="M148,134.3c5.95-7.27,4.65-17.94,4.65-17.94-0.89,4.92-5.84,7.85-7.87,8.17a10.45,10.45,0,0,1-10.94-4.85,10.83,10.83,0,0,1,3.28-14.83,10,10,0,0,1,11.62.56c1,0.21.41-1,.41-1a9.74,9.74,0,0,1-5.4-9.49c1.23-9.84,10.9-9.62,10.9-9.62s9.67-.22,10.9,9.62a9.76,9.76,0,0,1-5.4,9.49s-0.54,1.17.41,1a10,10,0,0,1,11.63-.56,10.84,10.84,0,0,1,3.28,14.83,10.47,10.47,0,0,1-10.94,4.82c-2-.33-7-3.25-7.86-8.17,0,0-1.3,10.67,4.65,17.94H148" transform="translate(0 -0.02)"/></g></g><g id="Page-1-3"><g id="Fill-87-3"><path class="cls-3" d="M148,201.12c5.95-7.27,4.65-17.94,4.65-17.94-0.89,4.92-5.84,7.85-7.87,8.17a10.45,10.45,0,0,1-10.94-4.85,10.83,10.83,0,0,1,3.28-14.83,10,10,0,0,1,11.62.56c1,0.21.41-1,.41-1a9.74,9.74,0,0,1-5.4-9.49c1.23-9.84,10.9-9.62,10.9-9.62s9.67-.22,10.9,9.62a9.76,9.76,0,0,1-5.4,9.49s-0.54,1.17.41,1a10,10,0,0,1,11.63-.56,10.84,10.84,0,0,1,3.28,14.83,10.47,10.47,0,0,1-10.94,4.85c-2-.33-7-3.25-7.86-8.17,0,0-1.3,10.67,4.65,17.94H148" transform="translate(0 -0.02)"/></g></g><g id="Page-1-4"><g id="Fill-87-4"><path class="cls-3" d="M148,269c5.95-7.27,4.65-17.94,4.65-17.94-0.89,4.92-5.84,7.85-7.87,8.17a10.45,10.45,0,0,1-10.94-4.85,10.83,10.83,0,0,1,3.28-14.84,10,10,0,0,1,11.62.56c1,0.21.41-1,.41-1a9.74,9.74,0,0,1-5.4-9.49c1.23-9.84,10.9-9.62,10.9-9.62s9.67-.22,10.9,9.62a9.76,9.76,0,0,1-5.4,9.49s-0.54,1.17.41,1a10,10,0,0,1,11.63-.56,10.84,10.84,0,0,1,3.28,14.83,10.47,10.47,0,0,1-10.94,4.85c-2-.33-7-3.25-7.86-8.17,0,0-1.3,10.67,4.65,17.94H148" transform="translate(0 -0.02)"/></g></g><g id="Page-1-5"><g id="Fill-87-5"><path class="cls-3" d="M88.5,269c5.95-7.27,4.65-17.94,4.65-17.94-0.89,4.92-5.84,7.85-7.87,8.17a10.45,10.45,0,0,1-10.94-4.85,10.83,10.83,0,0,1,3.28-14.84,10,10,0,0,1,11.62.56c1,0.21.41-1,.41-1a9.74,9.74,0,0,1-5.4-9.49c1.23-9.84,10.9-9.62,10.9-9.62s9.67-.22,10.9,9.62a9.76,9.76,0,0,1-5.4,9.49s-0.54,1.17.41,1a10,10,0,0,1,11.63-.56A10.84,10.84,0,0,1,116,254.34a10.47,10.47,0,0,1-11,4.85c-2-.33-7-3.25-7.86-8.17,0,0-1.3,10.67,4.65,17.94H88.5" transform="translate(0 -0.02)"/></g></g><g id="Page-1-6"><g id="Fill-87-6"><path class="cls-3" d="M88.5,201.12c5.95-7.27,4.65-17.94,4.65-17.94-0.89,4.92-5.84,7.85-7.87,8.17a10.45,10.45,0,0,1-10.94-4.85,10.83,10.83,0,0,1,3.28-14.83,10,10,0,0,1,11.62.56c1,0.21.41-1,.41-1a9.74,9.74,0,0,1-5.4-9.49c1.23-9.84,10.9-9.62,10.9-9.62s9.67-.22,10.9,9.62a9.76,9.76,0,0,1-5.4,9.49s-0.54,1.17.41,1a10,10,0,0,1,11.63-.56A10.84,10.84,0,0,1,116,186.5a10.47,10.47,0,0,1-11,4.85c-2-.33-7-3.25-7.86-8.17,0,0-1.3,10.67,4.65,17.94H88.5" transform="translate(0 -0.02)"/></g></g></g></svg>