<svg id="bottom_row" data-name="bottom row" xmlns="http://www.w3.org/2000/svg" viewBox="0 0 250 350"><defs><style>.cls-1{fill:#fff;}.cls-2{isolation:isolate;}.cls-3{fill:#2b2b2b;}.cls-4{fill:none;stroke:#2b2b2b;stroke-miterlimit:10;}</style></defs><title>c-8</title><g id="_8_spades" data-name=" 8 spades"><rect class="cls-1" width="250" height="350" rx="10" ry="10"/><g class="cls-2"><path class="cls-3" d="M28.17,21.34a7.13,7.13,0,0,1,1.72,4.8c0,5-4.24,8.8-9.84,8.8-5.2,0-9.24-2.88-9.24-6.6a5.24,5.24,0,0,1,1.4-3.52,9.1,9.1,0,0,1,3.88-2.44c-2.68-2-3.44-3.24-3.44-5.76a7.11,7.11,0,0,1,3-6.12,9.3,9.3,0,0,1,5.32-1.84c3.8,0,7,2.52,7,5.56,0,1.84-1,3-3.8,4.64A9.74,9.74,0,0,1,28.17,21.34ZM16,23.74a9.54,9.54,0,0,0-.64,4.16,9.79,9.79,0,0,0,.76,4.16c0.76,1.72,2,2.44,4.08,2.44,2.88,0,4.52-1.6,4.52-4.48a5,5,0,0,0-2.44-4.56c-0.28-.16-2.12-1-5.52-2.68A5.48,5.48,0,0,0,16,23.74Zm8.52-9.12a8.11,8.11,0,0,0-.68-3.88,3.21,3.21,0,0,0-2.76-1.6c-1.92,0-3.24,1.64-3.24,4A4.26,4.26,0,0,0,19,16.3c0.92,0.84,1.12,1,4.4,2.4C24.33,17.66,24.53,16.94,24.53,14.62Z"/></g><path class="cls-4" d="M28.17,21.34a7.13,7.13,0,0,1,1.72,4.8c0,5-4.24,8.8-9.84,8.8-5.2,0-9.24-2.88-9.24-6.6a5.24,5.24,0,0,1,1.4-3.52,9.1,9.1,0,0,1,3.88-2.44c-2.68-2-3.44-3.24-3.44-5.76a7.11,7.11,0,0,1,3-6.12A9.3,9.3,0,0,1,21,8.66c3.8,0,7,2.52,7,5.56,0,1.84-1,3-3.8,4.64A9.74,9.74,0,0,1,28.17,21.34ZM16,23.74a9.54,9.54,0,0,0-.64,4.16,9.79,9.79,0,0,0,.76,4.16c0.76,1.72,2,2.44,4.08,2.44,2.88,0,4.52-1.6,4.52-4.48a5,5,0,0,0-2.44-4.56c-0.28-.16-2.12-1-5.52-2.68A5.48,5.48,0,0,0,16,23.74Zm8.52-9.12a8.11,8.11,0,0,0-.68-3.88,3.21,3.21,0,0,0-2.76-1.6c-1.92,0-3.24,1.64-3.24,4A4.26,4.26,0,0,0,19,16.3c0.92,0.84,1.12,1,4.4,2.4,0.93-1,1.13-1.76,1.13-4.08h0Z"/><g class="cls-2"><path class="cls-3" d="M220.16,326.58a7.13,7.13,0,0,1-1.72-4.8c0-5,4.24-8.8,9.84-8.8,5.2,0,9.24,2.88,9.24,6.6a5.24,5.24,0,0,1-1.4,3.52,9.11,9.11,0,0,1-3.88,2.44c2.68,2,3.44,3.24,3.44,5.76a7.11,7.11,0,0,1-3,6.12,9.3,9.3,0,0,1-5.32,1.84c-3.8,0-7-2.52-7-5.56,0-1.84,1-3,3.8-4.64A9.74,9.74,0,0,1,220.16,326.58Zm12.16-2.4A9.53,9.53,0,0,0,233,320a9.79,9.79,0,0,0-.76-4.16c-0.76-1.72-2-2.44-4.08-2.44-2.88,0-4.52,1.6-4.52,4.48a5,5,0,0,0,2.44,4.56c0.28,0.16,2.12,1,5.52,2.68A5.46,5.46,0,0,0,232.32,324.18Zm-8.52,9.12a8.1,8.1,0,0,0,.68,3.88,3.21,3.21,0,0,0,2.76,1.6c1.92,0,3.24-1.64,3.24-4a4.26,4.26,0,0,0-1.16-3.12c-0.92-.84-1.12-1-4.4-2.4C224,330.26,223.8,331,223.8,333.3Z"/></g><path class="cls-4" d="M220.16,326.58a7.13,7.13,0,0,1-1.72-4.8c0-5,4.24-8.8,9.84-8.8,5.2,0,9.24,2.88,9.24,6.6a5.24,5.24,0,0,1-1.4,3.52,9.11,9.11,0,0,1-3.88,2.44c2.68,2,3.44,3.24,3.44,5.76a7.11,7.11,0,0,1-3,6.12,9.3,9.3,0,0,1-5.32,1.84c-3.8,0-7-2.52-7-5.56,0-1.84,1-3,3.8-4.64A9.74,9.74,0,0,1,220.16,326.58Zm12.16-2.4A9.53,9.53,0,0,0,233,320a9.79,9.79,0,0,0-.76-4.16c-0.76-1.72-2-2.44-4.08-2.44-2.88,0-4.52,1.6-4.52,4.48a5,5,0,0,0,2.44,4.56c0.28,0.16,2.12,1,5.52,2.68A5.46,5.46,0,0,0,232.32,324.18Zm-8.52,9.12a8.1,8.1,0,0,0,.68,3.88,3.21,3.21,0,0,0,2.76,1.6c1.92,0,3.24-1.64,3.24-4a4.26,4.26,0,0,0-1.16-3.12c-0.92-.84-1.12-1-4.4-2.4C224,330.26,223.8,331,223.8,333.3Z"/><g id="Page-1"><g id="Fill-87"><path class="cls-3" d="M79.51,132.69c6-7.27,4.65-17.94,4.65-17.94-0.89,4.92-5.84,7.85-7.87,8.17a10.45,10.45,0,0,1-10.94-4.85,10.83,10.83,0,0,1,3.28-14.83,10,10,0,0,1,11.62.56c1,0.21.41-1,.41-1a9.74,9.74,0,0,1-5.4-9.49c1.23-9.84,10.9-9.62,10.9-9.62s9.67-.22,10.9,9.62a9.76,9.76,0,0,1-5.4,9.49s-0.54,1.17.41,1a10,10,0,0,1,11.63-.56,10.84,10.84,0,0,1,3.3,14.83,10.47,10.47,0,0,1-11,4.85c-2-.33-7-3.25-7.86-8.17,0,0-1.3,10.67,4.65,17.94H79.51"/></g></g><g id="Page-1-2"><g id="Fill-87-2"><path class="cls-3" d="M157.17,132.69c6-7.27,4.65-17.94,4.65-17.94-0.89,4.92-5.84,7.85-7.87,8.17A10.45,10.45,0,0,1,143,118.07a10.83,10.83,0,0,1,3.28-14.83,10,10,0,0,1,11.62.56c1,0.21.41-1,.41-1a9.74,9.74,0,0,1-5.4-9.49c1.23-9.84,10.9-9.62,10.9-9.62s9.67-.22,10.9,9.62a9.76,9.76,0,0,1-5.4,9.49s-0.54,1.17.41,1a10,10,0,0,1,11.63-.56,10.84,10.84,0,0,1,3.28,14.83,10.47,10.47,0,0,1-10.94,4.85c-2-.33-7-3.25-7.86-8.17,0,0-1.3,10.67,4.65,17.94H157.17"/></g></g><g id="Page-1-3"><g id="Fill-87-3"><path class="cls-3" d="M117.34,168.19c6-7.27,4.65-17.94,4.65-17.94-0.89,4.92-5.84,7.85-7.87,8.17a10.45,10.45,0,0,1-10.94-4.85,10.83,10.83,0,0,1,3.28-14.83,10,10,0,0,1,11.62.56c1,0.21.41-1,.41-1a9.74,9.74,0,0,1-5.4-9.49c1.23-9.84,10.9-9.62,10.9-9.62s9.67-.22,10.9,9.62a9.76,9.76,0,0,1-5.4,9.49s-0.54,1.17.41,1a10,10,0,0,1,11.63-.56,10.84,10.84,0,0,1,3.28,14.83,10.47,10.47,0,0,1-10.94,4.85c-2-.33-7-3.25-7.86-8.17,0,0-1.3,10.67,4.65,17.94H117.34"/></g></g><g id="Page-1-4"><g id="Fill-87-4"><path class="cls-3" d="M79.51,201.52c6-7.27,4.65-17.94,4.65-17.94-0.89,4.92-5.84,7.85-7.87,8.17a10.45,10.45,0,0,1-10.94-4.85,10.83,10.83,0,0,1,3.28-14.83,10,10,0,0,1,11.62.56c1,0.21.41-1,.41-1a9.74,9.74,0,0,1-5.4-9.49c1.23-9.84,10.9-9.62,10.9-9.62s9.67-.22,10.9,9.62a9.76,9.76,0,0,1-5.4,9.49s-0.54,1.17.41,1a10,10,0,0,1,11.63-.56A10.84,10.84,0,0,1,107,186.9a10.47,10.47,0,0,1-11,4.85c-2-.33-7-3.25-7.86-8.17,0,0-1.3,10.67,4.65,17.94H79.51"/></g></g><g id="Page-1-5"><g id="Fill-87-5"><path class="cls-3" d="M157.17,201.52c6-7.27,4.65-17.94,4.65-17.94-0.89,4.92-5.84,7.85-7.87,8.17A10.45,10.45,0,0,1,143,186.9a10.83,10.83,0,0,1,3.28-14.83,10,10,0,0,1,11.62.56c1,0.21.41-1,.41-1a9.74,9.74,0,0,1-5.4-9.49c1.23-9.84,10.9-9.62,10.9-9.62s9.67-.22,10.9,9.62a9.76,9.76,0,0,1-5.4,9.49s-0.54,1.17.41,1a10,10,0,0,1,11.63-.56,10.84,10.84,0,0,1,3.28,14.83,10.47,10.47,0,0,1-10.94,4.85c-2-.33-7-3.25-7.86-8.17,0,0-1.3,10.67,4.65,17.94H157.17"/></g></g><g id="Page-1-6"><g id="Fill-87-6"><path class="cls-3" d="M157.17,272.86c6-7.27,4.65-17.94,4.65-17.94-0.89,4.92-5.84,7.85-7.87,8.17A10.45,10.45,0,0,1,143,258.24a10.83,10.83,0,0,1,3.28-14.83,10,10,0,0,1,11.62.56c1,0.21.41-1,.41-1a9.74,9.74,0,0,1-5.4-9.49c1.23-9.84,10.9-9.62,10.9-9.62s9.67-.22,10.9,9.62a9.76,9.76,0,0,1-5.4,9.49s-0.54,1.17.41,1a10,10,0,0,1,11.63-.56,10.84,10.84,0,0,1,3.28,14.83,10.47,10.47,0,0,1-10.94,4.85c-2-.33-7-3.25-7.86-8.17,0,0-1.3,10.67,4.65,17.94H157.17"/></g></g><g id="Page-1-7"><g id="Fill-87-7"><path class="cls-3" d="M117.34,236.69c6-7.27,4.65-17.94,4.65-17.94-0.89,4.92-5.84,7.85-7.87,8.17a10.45,10.45,0,0,1-10.94-4.85,10.83,10.83,0,0,1,3.28-14.83,10,10,0,0,1,11.62.56c1,0.21.41-1,.41-1a9.74,9.74,0,0,1-5.4-9.49c1.23-9.84,10.9-9.62,10.9-9.62s9.67-.22,10.9,9.62a9.76,9.76,0,0,1-5.4,9.49s-0.54,1.17.41,1a10,10,0,0,1,11.63-.56,10.84,10.84,0,0,1,3.28,14.83,10.47,10.47,0,0,1-10.94,4.85c-2-.33-7-3.25-7.86-8.17,0,0-1.3,10.67,4.65,17.94H117.34"/></g></g><g id="Page-1-8"><g id="Fill-87-8"><path class="cls-3" d="M79.51,272.86c6-7.27,4.65-17.94,4.65-17.94-0.89,4.92-5.84,7.85-7.87,8.17a10.45,10.45,0,0,1-10.94-4.85,10.83,10.83,0,0,1,3.28-14.83,10,10,0,0,1,11.62.56c1,0.21.41-1,.41-1a9.74,9.74,0,0,1-5.4-9.49c1.23-9.84,10.9-9.62,10.9-9.62s9.67-.22,10.9,9.62a9.76,9.76,0,0,1-5.4,9.49s-0.54,1.17.41,1a10,10,0,0,1,11.63-.56,10.84,10.84,0,0,1,3.3,14.83,10.47,10.47,0,0,1-11,4.85c-2-.33-7-3.25-7.86-8.17,0,0-1.3,10.67,4.65,17.94H79.51"/></g></g></g></svg>