<svg id="top_row" data-name="top row" xmlns="http://www.w3.org/2000/svg" viewBox="0 0 250 350"><defs><style>.cls-1{fill:#fff;}.cls-2{isolation:isolate;}.cls-3{fill:#2b2b2b;}.cls-4{fill:none;stroke:#2b2b2b;stroke-miterlimit:10;}</style></defs><title>c-a</title><g id="ace_spades" data-name="ace spades"><rect class="cls-1" width="250" height="350" rx="10" ry="10"/><g class="cls-2"><path class="cls-3" d="M10.89,35.4c2.72-.08,4.52-2.2,6.36-7.56L23.17,9.36h6l8,23.52c0.64,2.2,1,2.48,2.52,2.52h1.16V36H25.29V35.4h1.64c1.2,0,1.72-.36,1.72-1.12a5.13,5.13,0,0,0-.24-1.4L25.85,25H18.77l-0.88,2.76a12,12,0,0,0-.56,3.36c0,3,1.36,4.32,4.44,4.32V36H10.89V35.4Zm14.8-11L22.41,13.76l-3.52,10.6Z"/></g><path class="cls-4" d="M10.89,35.4c2.72-.08,4.52-2.2,6.36-7.56L23.17,9.36h6l8,23.52c0.64,2.2,1,2.48,2.52,2.52h1.16V36H25.29V35.4h1.64c1.2,0,1.72-.36,1.72-1.12a5.13,5.13,0,0,0-.24-1.4L25.85,25H18.77l-0.88,2.76a12,12,0,0,0-.56,3.36c0,3,1.36,4.32,4.44,4.32V36H10.89V35.4Zm14.8-11L22.41,13.76l-3.52,10.6Z"/><g class="cls-2"><path class="cls-3" d="M240.31,315.68c-2.72.08-4.52,2.2-6.36,7.56L228,341.71h-6l-8-23.52c-0.64-2.2-1-2.48-2.52-2.52h-1.16V315h15.52v0.64h-1.64c-1.2,0-1.72.36-1.72,1.12a5.11,5.11,0,0,0,.24,1.4l2.56,7.92h7.08l0.88-2.76a12,12,0,0,0,.56-3.36c0-3-1.36-4.32-4.44-4.32V315h10.88v0.64Zm-14.8,11,3.28,10.64,3.52-10.6Z"/></g><path class="cls-4" d="M240.31,315.68c-2.72.08-4.52,2.2-6.36,7.56L228,341.71h-6l-8-23.52c-0.64-2.2-1-2.48-2.52-2.52h-1.16V315h15.52v0.64H224.2c-1.2,0-1.72.36-1.72,1.12a5.11,5.11,0,0,0,.24,1.4l2.56,7.92h7.08l0.88-2.76a12,12,0,0,0,.56-3.36c0-3-1.36-4.32-4.44-4.32V315h10.88v0.64Zm-14.8,11,3.28,10.64,3.52-10.6Z"/><g id="Page-1"><g id="Fill-87"><path class="cls-3" d="M110.13,226.92c13.75-16.81,10.75-41.47,10.75-41.47-2,11.37-13.5,18.13-18.18,18.89a24.16,24.16,0,0,1-25.28-11.2C66.2,173,82.56,160.35,85,158.86a23.07,23.07,0,0,1,26.86,1.28c2.21,0.48,1-2.24,1-2.24-12.33-6.73-12.93-18.14-12.48-21.94,2.83-22.74,25.2-22.22,25.2-22.22s22.34-.51,25.18,22.22c0.44,3.8-.16,15.21-12.49,21.94,0,0-1.26,2.71,1,2.24a23.09,23.09,0,0,1,26.87-1.28c2.44,1.49,18.8,14.09,7.59,34.28a24.2,24.2,0,0,1-25.34,11.2c-4.68-.76-16.12-7.52-18.17-18.89,0,0-3,24.66,10.74,41.47H110.13"/></g></g></g></svg>