<svg id="bottom_row" data-name="bottom row" xmlns="http://www.w3.org/2000/svg" viewBox="0 0 250 350"><defs><style>.cls-1{fill:#fff;}.cls-2{isolation:isolate;}.cls-3{fill:#2b2b2b;}.cls-4{fill:none;stroke:#2b2b2b;stroke-miterlimit:10;}</style></defs><title>c-j</title><g id="J"><rect class="cls-1" width="250" height="350" rx="10" ry="10"/><g class="cls-2"><path class="cls-3" d="M29.93,27.08a10.86,10.86,0,0,1-.44,3.68c-1.12,2.64-5.84,4.8-10.4,4.8-5.4,0-9-2.68-9-6.76A4.93,4.93,0,0,1,15,23.68a4.63,4.63,0,0,1,4.68,4.52,4.37,4.37,0,0,1-4.28,4.44,5.63,5.63,0,0,1-2.08-.4,4,4,0,0,0,4.08,2.52c3,0,4.56-2,4.56-5.64v-18c0-1.56-.64-2-2.64-2.12H18.17V8.36H33V9H32a1.77,1.77,0,0,0-2,1.92V27.08Z"/></g><path class="cls-4" d="M29.93,27.08a10.86,10.86,0,0,1-.44,3.68c-1.12,2.64-5.84,4.8-10.4,4.8-5.4,0-9-2.68-9-6.76a4.93,4.93,0,0,1,4.74-5.12H15a4.63,4.63,0,0,1,4.68,4.52,4.37,4.37,0,0,1-4.28,4.44,5.63,5.63,0,0,1-2.08-.4,4,4,0,0,0,4.08,2.52c3,0,4.56-2,4.56-5.64v-18c0-1.56-.64-2-2.64-2.12H18.17V8.36H33V9H32a1.77,1.77,0,0,0-2,1.92V27.08H29.93Z"/><g class="cls-2"><path class="cls-3" d="M218.4,322a10.84,10.84,0,0,1,.44-3.68c1.12-2.64,5.84-4.8,10.4-4.8,5.4,0,9,2.68,9,6.76a4.93,4.93,0,0,1-4.88,5.12,4.63,4.63,0,0,1-4.68-4.52,4.37,4.37,0,0,1,4.28-4.44,5.63,5.63,0,0,1,2.08.4,4,4,0,0,0-4.08-2.52c-3,0-4.56,2-4.56,5.64v18c0,1.56.64,2,2.64,2.12h1.16v0.64H215.28v-0.64h1.08a1.77,1.77,0,0,0,2-1.92V322Z"/></g><path class="cls-4" d="M218.4,322a10.84,10.84,0,0,1,.44-3.68c1.12-2.64,5.84-4.8,10.4-4.8,5.4,0,9,2.68,9,6.76a4.93,4.93,0,0,1-4.74,5.12h-0.14a4.63,4.63,0,0,1-4.68-4.52,4.37,4.37,0,0,1,4.28-4.44,5.63,5.63,0,0,1,2.08.4,4,4,0,0,0-4.08-2.52c-3,0-4.56,2-4.56,5.64v18c0,1.56.64,2,2.64,2.12h1.16v0.64H215.28v-0.64h1.08a1.77,1.77,0,0,0,2-1.92V322h0Z"/><g class="cls-2"><path class="cls-3" d="M153.91,206.14c0,7.69-.73,14.09-2,16.84-5.12,12.08-26.72,22-47.58,22-24.71,0-41-12.26-41-30.93,0-13.18,9.7-23.42,22.33-23.42,11.71,0,21.41,9.33,21.41,20.68,0,11.16-8.78,20.31-19.58,20.31A25.8,25.8,0,0,1,78,229.75c3.48,7.87,9.52,11.53,18.67,11.53,13.54,0,20.86-9,20.86-25.8V133.13c0-7.14-2.93-9.33-12.08-9.7h-5.31V120.5h68.08v2.93h-4.94c-6.22,0-9.15,2.93-9.33,8.78v73.93Z"/></g><path class="cls-4" d="M153.91,206.14c0,7.69-.73,14.09-2,16.84-5.12,12.08-26.72,22-47.58,22-24.71,0-41-12.26-41-30.93,0-13.18,9.7-23.42,22.33-23.42,11.71,0,21.41,9.33,21.41,20.68,0,11.16-8.78,20.31-19.58,20.31A25.8,25.8,0,0,1,78,229.75c3.48,7.87,9.52,11.53,18.67,11.53,13.54,0,20.86-9,20.86-25.8V133.13c0-7.14-2.93-9.33-12.08-9.7h-5.31V120.5h68.08v2.93h-4.94c-6.22,0-9.15,2.93-9.33,8.78v73.93h0Z"/><g id="Page-1"><g id="Fill-87"><path class="cls-3" d="M128.07,120.27c5.95-7.27,4.65-17.94,4.65-17.94-0.89,4.92-5.84,7.85-7.87,8.17a10.45,10.45,0,0,1-10.94-4.85,10.83,10.83,0,0,1,3.26-14.85,10,10,0,0,1,11.62.56c1,0.21.41-1,.41-1a9.74,9.74,0,0,1-5.4-9.49c1.23-9.84,10.9-9.62,10.9-9.62s9.67-.22,10.9,9.62a9.76,9.76,0,0,1-5.4,9.49s-0.54,1.17.41,1a10,10,0,0,1,11.63-.56,10.84,10.84,0,0,1,3.28,14.83,10.47,10.47,0,0,1-10.94,4.85c-2-.33-7-3.25-7.86-8.17,0,0-1.3,10.67,4.65,17.94h-13.3"/></g></g></g></svg>