<svg id="bottom_row" data-name="bottom row" xmlns="http://www.w3.org/2000/svg" viewBox="0 0 250 350"><defs><style>.cls-1{fill:#fff;}.cls-2{isolation:isolate;}.cls-3{fill:#2b2b2b;}.cls-4{fill:none;stroke:#2b2b2b;stroke-miterlimit:10;}</style></defs><title>c-k</title><g id="K"><rect class="cls-1" width="250" height="350" rx="10" ry="10"/><g class="cls-2"><path class="cls-3" d="M10.41,34.4h0.88a1.91,1.91,0,0,0,2.08-2.08v-22C13.29,9.36,12.61,9,11.21,9h-0.8V8.36H23.85V9H22.93c-1.32,0-1.64.2-1.76,1.28V20l6-5.84a5.38,5.38,0,0,0,1.6-3.52,1.91,1.91,0,0,0-.52-1.36A2.43,2.43,0,0,0,26.53,9H25.81V8.36h11.6V9h-0.8c-1.72-.2-3.4.8-8.16,4.88l-2.2,2.24,10.44,16.2c0.72,1.16,1.92,2.12,2.52,2.08h1.52V35H24.85V34.4h1a1.21,1.21,0,0,0,1.16-1,5.06,5.06,0,0,0-.72-2l-5.08-9.16v10.6a1.53,1.53,0,0,0,1.28,1.56h1.08V35H10.41V34.4Z"/></g><path class="cls-4" d="M10.41,34.4h0.88a1.91,1.91,0,0,0,2.08-2.08v-22C13.29,9.36,12.61,9,11.21,9h-0.8V8.36H23.85V9H22.93c-1.32,0-1.64.2-1.76,1.28V20l6-5.84a5.38,5.38,0,0,0,1.6-3.52,1.91,1.91,0,0,0-.52-1.36A2.43,2.43,0,0,0,26.53,9H25.81V8.36h11.6V9h-0.8c-1.72-.2-3.4.8-8.16,4.88l-2.2,2.24,10.44,16.2c0.72,1.16,1.92,2.12,2.52,2.08h1.52V35H24.85V34.4h1a1.21,1.21,0,0,0,1.16-1,5.06,5.06,0,0,0-.72-2l-5.08-9.16v10.6a1.53,1.53,0,0,0,1.28,1.56h1.08V35H10.41V34.4Z"/><g class="cls-2"><path class="cls-3" d="M237.92,314.69H237a1.91,1.91,0,0,0-2.08,2.08v22c0.08,0.92.76,1.28,2.16,1.28h0.8v0.64H224.48v-0.64h0.92c1.32,0,1.64-.2,1.76-1.28v-9.72l-6,5.84a5.38,5.38,0,0,0-1.6,3.52,1.9,1.9,0,0,0,.52,1.36,2.43,2.43,0,0,0,1.68.28h0.72v0.64h-11.6v-0.64h0.8c1.72,0.2,3.4-.8,8.16-4.88l2.2-2.24-10.44-16.2c-0.72-1.16-1.92-2.12-2.52-2.08h-1.52v-0.64h15.88v0.64h-1a1.21,1.21,0,0,0-1.16,1,5.05,5.05,0,0,0,.72,2l5.08,9.16v-10.6a1.53,1.53,0,0,0-1.28-1.56H224.8v-0.64h13.12v0.64Z"/></g><path class="cls-4" d="M237.92,314.69H237a1.91,1.91,0,0,0-2.08,2.08v22c0.08,0.92.76,1.28,2.16,1.28h0.8v0.64h-13.4V340h0.92c1.32,0,1.64-.2,1.76-1.28V329l-6,5.84a5.38,5.38,0,0,0-1.6,3.52,1.9,1.9,0,0,0,.52,1.36,2.43,2.43,0,0,0,1.68.28h0.72v0.64h-11.6V340h0.8c1.72,0.2,3.4-.8,8.16-4.88l2.2-2.24-10.44-16.2c-0.72-1.16-1.92-2.12-2.52-2.08h-1.52V314h15.88v0.64h-1a1.21,1.21,0,0,0-1.16,1,5,5,0,0,0,.72,2l5.08,9.16v-10.6a1.53,1.53,0,0,0-1.28-1.56h-1V314h13.12v0.68Z"/><g class="cls-2"><path class="cls-3" d="M64.61,239.63h4c6.22-.18,9.52-3.66,9.52-9.52V129.28c-0.37-4.21-3.48-5.86-9.88-5.86H64.61V120.5H126.1v2.93h-4.21c-6-.18-7.5.92-8.05,5.86v44.47L141.1,147c4.39-4.39,7.32-10.8,7.32-16.1a8.71,8.71,0,0,0-2.38-6.22c-1.1-1.1-2.93-1.28-7.69-1.28h-3.29V120.5h53.07v2.93h-3.66c-7.87-.92-15.56,3.66-37.33,22.33L137.08,156l47.76,74.11c3.29,5.31,8.78,9.7,11.53,9.52h7v2.93H130.67v-2.93h4.39c2.56,0,5.31-2.38,5.31-4.58,0-2-1.28-5.49-3.29-9.15L113.84,184v48.5a7,7,0,0,0,5.86,7.14h4.94v2.93h-60v-2.93Z"/></g><path class="cls-4" d="M64.61,239.63h4c6.22-.18,9.52-3.66,9.52-9.52V129.28c-0.37-4.21-3.48-5.86-9.88-5.86H64.61V120.5H126.1v2.93h-4.21c-6-.18-7.5.92-8.05,5.86v44.47L141.1,147c4.39-4.39,7.32-10.8,7.32-16.1a8.71,8.71,0,0,0-2.38-6.22c-1.1-1.1-2.93-1.28-7.69-1.28h-3.29v-2.9h53.07v2.93h-3.66c-7.87-.92-15.56,3.66-37.33,22.33L137.08,156l47.76,74.11c3.29,5.31,8.78,9.7,11.53,9.52h7v2.93h-72.7v-2.93h4.39c2.56,0,5.31-2.38,5.31-4.58,0-2-1.28-5.49-3.29-9.15L113.84,184v48.5a7,7,0,0,0,5.86,7.14h4.94v2.93h-60v-2.93h0Z"/><g id="Page-1"><g id="Fill-87"><path class="cls-3" d="M88.47,119.94c5.95-7.27,4.65-17.94,4.65-17.94-0.89,4.92-5.84,7.85-7.87,8.17a10.45,10.45,0,0,1-10.94-4.85,10.83,10.83,0,0,1,3.28-14.83A10,10,0,0,1,89.21,91c1,0.21.41-1,.41-1a9.74,9.74,0,0,1-5.4-9.49c1.23-9.84,10.9-9.62,10.9-9.62s9.67-.22,10.9,9.62a9.76,9.76,0,0,1-5.4,9.49s-0.54,1.17.41,1a10,10,0,0,1,11.63-.56,10.84,10.84,0,0,1,3.28,14.83,10.47,10.47,0,0,1-10.94,4.9c-2-.33-7-3.25-7.86-8.17,0,0-1.3,10.67,4.65,17.94H88.47"/></g></g><g id="Page-1-2"><g id="Fill-87-2"><path class="cls-3" d="M162.38,242.57H175.7c-6,7.27-4.65,17.94-4.65,17.94,0.89-4.92,5.83-7.85,7.86-8.17a10.47,10.47,0,0,1,10.94,4.85A10.84,10.84,0,0,1,186.57,272a10,10,0,0,1-11.63-.56c-1-.21-0.41,1-0.41,1a9.76,9.76,0,0,1,5.4,9.49c-1.23,9.84-10.9,9.62-10.9,9.62s-9.68.22-10.9-9.62a9.74,9.74,0,0,1,5.4-9.49s0.54-1.17-.41-1a10,10,0,0,1-11.62.56,10.83,10.83,0,0,1-3.28-14.83,10.45,10.45,0,0,1,10.94-4.85c2,0.33,7,3.25,7.87,8.17,0,0,1.3-10.67-4.65-17.94"/></g></g></g></svg>