<svg id="bottom_row" data-name="bottom row" xmlns="http://www.w3.org/2000/svg" viewBox="0 0 250 350"><defs><style>.cls-1{fill:#fff;}.cls-2{isolation:isolate;}.cls-3{fill:#2b2b2b;}.cls-4{fill:none;stroke:#2b2b2b;stroke-miterlimit:10;}</style></defs><title>c-q</title><g id="Q"><rect class="cls-1" width="250" height="350" rx="10" ry="10"/><g class="cls-2"><path class="cls-3" d="M35.57,33.08c0,4.56-2.68,7.56-6.72,7.56-2.24,0-4.48-1-5.36-2.56a3.65,3.65,0,0,1-.48-2,1.25,1.25,0,0,1,.2-0.84A15.21,15.21,0,0,1,15.57,32a12.92,12.92,0,0,1-4.64-10.4,13.44,13.44,0,0,1,3.4-9.28,14.9,14.9,0,0,1,10-4.48,14.88,14.88,0,0,1,10,4.48,13.44,13.44,0,0,1,3.4,9.28A13.56,13.56,0,0,1,35,30.08,7.71,7.71,0,0,1,35.57,33.08Zm-14.64-.84a2.61,2.61,0,0,1,.72-2.12A3,3,0,0,1,24,28.92c1.56,0,2.44,1.08,2.76,3.32,0.12,1,.24,1.24.56,1.44,1.52-1.56,2.16-5.2,2.16-12.12,0-5.16-.48-9.16-1.28-10.8a4,4,0,0,0-3.84-2.44,4,4,0,0,0-4,2.64c-0.76,1.6-1.2,5.68-1.2,10.6,0,6.16.56,9.84,1.72,11.56V32.24Zm1.08,2a3.64,3.64,0,0,0,1.52.56c0-.08,0-0.08.8-1.4,0.92-1.56.92-1.6,0.92-2.12a1.61,1.61,0,0,0-1.64-1.68,2.47,2.47,0,0,0-2.16,2.64,3.64,3.64,0,0,0,.2,1.08Zm8.32,1.52c2.28,0,4.44-2,4.44-4a7.61,7.61,0,0,0-.12-1.16A15.3,15.3,0,0,1,28,34.76,2.91,2.91,0,0,0,30.33,35.76Z"/></g><path class="cls-4" d="M35.57,33.08c0,4.56-2.68,7.56-6.72,7.56-2.24,0-4.48-1-5.36-2.56a3.65,3.65,0,0,1-.48-2,1.25,1.25,0,0,1,.2-0.84A15.21,15.21,0,0,1,15.57,32a12.92,12.92,0,0,1-4.64-10.4,13.44,13.44,0,0,1,3.4-9.28,14.9,14.9,0,0,1,10-4.48,14.88,14.88,0,0,1,10,4.48,13.44,13.44,0,0,1,3.4,9.28A13.56,13.56,0,0,1,35,30.08,7.71,7.71,0,0,1,35.57,33.08Zm-14.64-.84a2.61,2.61,0,0,1,.72-2.12A3,3,0,0,1,24,28.92c1.56,0,2.44,1.08,2.76,3.32,0.12,1,.24,1.24.56,1.44,1.52-1.56,2.16-5.2,2.16-12.12,0-5.16-.48-9.16-1.28-10.8a4,4,0,0,0-3.84-2.44,4,4,0,0,0-4,2.64c-0.76,1.6-1.2,5.68-1.2,10.6,0,6.16.56,9.84,1.72,11.56V32.24h0.05Zm1.08,2a3.64,3.64,0,0,0,1.52.56,5.83,5.83,0,0,1,.8-1.4c0.92-1.56.92-1.6,0.92-2.12a1.61,1.61,0,0,0-1.54-1.68h-0.1a2.47,2.47,0,0,0-2.16,2.64,3.64,3.64,0,0,0,.2,1.08Zm8.32,1.52c2.28,0,4.44-2,4.44-4a7.61,7.61,0,0,0-.12-1.16A15.3,15.3,0,0,1,28,34.76,2.91,2.91,0,0,0,30.33,35.76Z"/><g class="cls-2"><path class="cls-3" d="M212.76,316c0-4.56,2.68-7.56,6.72-7.56,2.24,0,4.48,1,5.36,2.56a3.64,3.64,0,0,1,.48,2,1.25,1.25,0,0,1-.2.84,15.21,15.21,0,0,1,7.64,3.28,12.92,12.92,0,0,1,4.64,10.4,13.44,13.44,0,0,1-3.4,9.28,13.44,13.44,0,0,1-20,0,14.38,14.38,0,0,1-.64-17.76A7.72,7.72,0,0,1,212.76,316Zm5.24-2.68c-2.28,0-4.44,2-4.44,4a7.66,7.66,0,0,0,.12,1.16,15.3,15.3,0,0,1,6.68-4.2A2.91,2.91,0,0,0,218,313.33Zm9.4,3.52a2.61,2.61,0,0,1-.72,2.12,3,3,0,0,1-2.36,1.2c-1.56,0-2.44-1.08-2.76-3.32-0.12-1-.24-1.24-0.56-1.44-1.52,1.56-2.16,5.2-2.16,12.12,0,5.16.48,9.16,1.28,10.8a4.27,4.27,0,0,0,7.8-.2c0.76-1.6,1.2-5.68,1.2-10.6,0-6.16-.56-9.84-1.72-11.56v0.88Zm-1.08-2a3.63,3.63,0,0,0-1.52-.56l-0.8,1.4c-0.92,1.56-.92,1.6-0.92,2.12a1.61,1.61,0,0,0,1.64,1.68,2.47,2.47,0,0,0,2.16-2.64,3.61,3.61,0,0,0-.2-1.08Z"/></g><path class="cls-4" d="M212.76,316c0-4.56,2.68-7.56,6.72-7.56,2.24,0,4.48,1,5.36,2.56a3.64,3.64,0,0,1,.48,2,1.25,1.25,0,0,1-.2.84,15.21,15.21,0,0,1,7.64,3.28,12.92,12.92,0,0,1,4.64,10.4A13.42,13.42,0,0,1,214,336.8a14.38,14.38,0,0,1-.64-17.76A7.72,7.72,0,0,1,212.76,316Zm5.24-2.68c-2.28,0-4.44,2-4.44,4a7.66,7.66,0,0,0,.12,1.16,15.3,15.3,0,0,1,6.68-4.2,2.91,2.91,0,0,0-2.36-1h0Zm9.4,3.52a2.61,2.61,0,0,1-.72,2.12,3,3,0,0,1-2.36,1.2c-1.56,0-2.44-1.08-2.76-3.32-0.12-1-.24-1.24-0.56-1.44-1.52,1.56-2.16,5.2-2.16,12.12,0,5.16.48,9.16,1.28,10.8a4.27,4.27,0,0,0,7.8-.2c0.76-1.6,1.2-5.68,1.2-10.6,0-6.16-.56-9.84-1.72-11.56v0.88h0Zm-1.08-2a3.63,3.63,0,0,0-1.52-.56l-0.8,1.4c-0.92,1.56-.92,1.6-0.92,2.12a1.61,1.61,0,0,0,1.54,1.68h0.1a2.47,2.47,0,0,0,2.16-2.64,3.61,3.61,0,0,0-.2-1.08Z"/><g class="cls-2"><path class="cls-3" d="M176.72,233.59c0,20.86-12.26,34.59-30.74,34.59-10.25,0-20.5-4.76-24.52-11.71a16.69,16.69,0,0,1-2.2-9c0-2,.18-2.75.92-3.84-11.53-1.1-24.7-6.77-35-15C71.49,217.67,64,200.84,64,181.07c0-16.65,5.49-31.66,15.56-42.46,11.35-12.08,30.19-20.5,45.93-20.5,15.55,0,34.4,8.42,45.75,20.5,10.06,10.8,15.55,25.8,15.55,42.46,0,15-4.39,28.18-12.63,38.8C176.53,227.55,176.72,228.83,176.72,233.59Zm-67-3.84c0-4.58.55-6.59,3.29-9.7a13.69,13.69,0,0,1,10.8-5.49c7.14,0,11.16,4.94,12.63,15.19,0.55,4.39,1.1,5.67,2.56,6.59,7-7.14,9.88-23.79,9.88-55.45,0-23.61-2.2-41.91-5.86-49.41-3.84-7.5-9.52-11.16-17.57-11.16-8.6,0-14.46,3.84-18.12,12.08-3.48,7.32-5.49,26-5.49,48.49,0,28.18,2.56,45,7.87,52.89v-4Zm4.94,9.15a16.65,16.65,0,0,0,7,2.56c0.18-.37.18-0.37,3.66-6.41,4.21-7.14,4.21-7.32,4.21-9.7a7.36,7.36,0,0,0-7.5-7.69c-5.31,0-9.88,5.49-9.88,12.08a16.67,16.67,0,0,0,.92,4.94Zm38.06,7c10.43,0,20.31-9,20.31-18.48a34.68,34.68,0,0,0-.55-5.31c-7,8.05-19,15.74-30.56,19.21C143.78,244,148.17,245.85,152.74,245.85Z"/></g><path class="cls-4" d="M176.72,233.59c0,20.86-12.26,34.59-30.74,34.59-10.25,0-20.5-4.76-24.52-11.71a16.69,16.69,0,0,1-2.2-9c0-2,.18-2.75.92-3.84-11.53-1.1-24.7-6.77-35-15C71.49,217.67,64,200.84,64,181.07c0-16.65,5.49-31.66,15.56-42.46,11.35-12.08,30.19-20.5,45.93-20.5,15.55,0,34.4,8.42,45.75,20.5,10.06,10.8,15.55,25.8,15.55,42.46,0,15-4.39,28.18-12.63,38.8C176.53,227.55,176.72,228.83,176.72,233.59Zm-67-3.84c0-4.58.55-6.59,3.29-9.7a13.69,13.69,0,0,1,10.8-5.49c7.14,0,11.16,4.94,12.63,15.19,0.55,4.39,1.1,5.67,2.56,6.59,7-7.14,9.88-23.79,9.88-55.45,0-23.61-2.2-41.91-5.86-49.41-3.84-7.5-9.52-11.16-17.57-11.16-8.6,0-14.46,3.84-18.12,12.08-3.48,7.32-5.49,26-5.49,48.49,0,28.18,2.56,45,7.87,52.89v-4Zm4.94,9.15a16.65,16.65,0,0,0,7,2.56c0.18-.37.18-0.37,3.66-6.41,4.21-7.14,4.21-7.32,4.21-9.7a7.36,7.36,0,0,0-7-7.68H122c-5.31,0-9.88,5.49-9.88,12.08a16.67,16.67,0,0,0,.92,4.94Zm38.06,7c10.43,0,20.31-9,20.31-18.48a34.68,34.68,0,0,0-.55-5.31c-7,8.05-19,15.74-30.56,19.21,1.86,2.68,6.25,4.53,10.82,4.53Z"/><g id="Page-1"><g id="Fill-87"><path class="cls-3" d="M118.37,118.94C124.32,111.67,123,101,123,101c-0.89,4.92-5.84,7.85-7.87,8.17a10.45,10.45,0,0,1-10.94-4.85,10.83,10.83,0,0,1,3.28-14.83,10,10,0,0,1,11.62.56c1,0.21.41-1,.41-1a9.74,9.74,0,0,1-5.4-9.49c1.23-9.84,10.9-9.62,10.9-9.62s9.67-.22,10.9,9.62A9.76,9.76,0,0,1,130.5,89s-0.54,1.17.41,1a10,10,0,0,1,11.63-.56,10.84,10.84,0,0,1,3.28,14.83,10.47,10.47,0,0,1-10.94,4.85c-2-.33-7-3.25-7.86-8.17,0,0-1.3,10.67,4.65,17.94h-13.3"/></g></g></g></svg>