<svg id="bottom_row" data-name="bottom row" xmlns="http://www.w3.org/2000/svg" viewBox="0 0 250 350"><defs><style>.cls-1{fill:#c0b073;}.cls-2{isolation:isolate;}.cls-3{fill:#2b2b2b;}.cls-4{fill:none;stroke:#2b2b2b;stroke-miterlimit:10;}</style></defs><title>d-10</title><g id="_10_spades" data-name=" 10 spades"><rect class="cls-1" width="250" height="350" rx="10" ry="10"/><g class="cls-2"><path class="cls-3" d="M14.41,34.56h0.8c1.28-.08,1.92-0.88,1.92-2.52V15.76c0-2-.24-2.16-2.48-2.24V13.16a19.36,19.36,0,0,0,8.52-4.32h0.36V32.72a1.69,1.69,0,0,0,1.8,1.84h1.2V35H14.41V34.56Z"/><path class="cls-3" d="M44,12.32c2,2.16,3.24,6,3.24,9.92,0,7.36-4.16,13.4-9.24,13.4-5.6,0-9.52-5.4-9.52-13.08,0-3.64.72-6.56,2.2-8.76C32.57,11,35.25,9.36,38,9.36A8.73,8.73,0,0,1,44,12.32Zm-8.68-.72c-0.4,1.12-.6,3.68-0.6,7.84,0,7.08.28,12.48,0.76,13.88s1.16,1.92,2.24,1.92A2.36,2.36,0,0,0,40,33.56c0.52-1.24.76-4.76,0.76-10.76a64.85,64.85,0,0,0-.6-10.68c-0.36-1.56-1.28-2.48-2.52-2.48A2.61,2.61,0,0,0,35.37,11.6Z"/></g><path class="cls-4" d="M14.41,34.56h0.8c1.28-.08,1.92-0.88,1.92-2.52V15.76c0-2-.24-2.16-2.48-2.24V13.16a19.36,19.36,0,0,0,8.52-4.32h0.36V32.72a1.69,1.69,0,0,0,1.53,1.84h1.47V35H14.41V34.56Z"/><path class="cls-4" d="M44,12.32c2,2.16,3.24,6,3.24,9.92,0,7.36-4.16,13.4-9.24,13.4-5.6,0-9.52-5.4-9.52-13.08,0-3.64.72-6.56,2.2-8.76C32.57,11,35.25,9.36,38,9.36A8.73,8.73,0,0,1,44,12.32Zm-8.68-.72c-0.4,1.12-.6,3.68-0.6,7.84,0,7.08.28,12.48,0.76,13.88s1.16,1.92,2.24,1.92A2.36,2.36,0,0,0,40,33.56c0.52-1.24.76-4.76,0.76-10.76a64.85,64.85,0,0,0-.6-10.68c-0.36-1.56-1.28-2.48-2.52-2.48a2.61,2.61,0,0,0-2.27,2h0Z"/><g class="cls-2"><path class="cls-3" d="M233.92,314.52h-0.8c-1.28.08-1.92,0.88-1.92,2.52v16.28c0,2,.24,2.16,2.48,2.24v0.36a19.36,19.36,0,0,0-8.52,4.32H224.8V316.36a1.69,1.69,0,0,0-1.8-1.84h-1.2V314h12.12v0.48Z"/><path class="cls-3" d="M204.28,336.75c-2-2.16-3.24-6-3.24-9.92,0-7.36,4.16-13.4,9.24-13.4,5.6,0,9.52,5.4,9.52,13.08a15.45,15.45,0,0,1-2.2,8.76c-1.84,2.8-4.52,4.44-7.24,4.44A8.73,8.73,0,0,1,204.28,336.75Zm8.68,0.72c0.4-1.12.6-3.68,0.6-7.84,0-7.08-.28-12.48-0.76-13.88s-1.16-1.92-2.24-1.92a2.36,2.36,0,0,0-2.24,1.68c-0.52,1.24-.76,4.76-0.76,10.76a64.91,64.91,0,0,0,.6,10.68c0.36,1.56,1.28,2.48,2.52,2.48A2.61,2.61,0,0,0,213,337.48Z"/></g><path class="cls-4" d="M233.92,314.52h-0.8c-1.28.08-1.92,0.88-1.92,2.52v16.28c0,2,.24,2.16,2.48,2.24v0.36a19.36,19.36,0,0,0-8.52,4.32H224.8V316.36a1.69,1.69,0,0,0-1.53-1.84H221.8V314h12.12v0.52Z"/><path class="cls-4" d="M204.28,336.75c-2-2.16-3.24-6-3.24-9.92,0-7.36,4.16-13.4,9.24-13.4,5.6,0,9.52,5.4,9.52,13.08a15.45,15.45,0,0,1-2.2,8.76c-1.84,2.8-4.52,4.44-7.24,4.44A8.73,8.73,0,0,1,204.28,336.75Zm8.68,0.72c0.4-1.12.6-3.68,0.6-7.84,0-7.08-.28-12.48-0.76-13.88s-1.16-1.92-2.24-1.92a2.36,2.36,0,0,0-2.24,1.68c-0.52,1.24-.76,4.76-0.76,10.76a64.91,64.91,0,0,0,.6,10.68c0.36,1.56,1.28,2.48,2.52,2.48a2.61,2.61,0,0,0,2.32-1.95h0Z"/><g id="Page-1"><g id="Fill-5"><path class="cls-3" d="M124,118.76a75.46,75.46,0,0,0,22.47,26.11A76,76,0,0,0,124,171a76.74,76.74,0,0,0-22.53-26.09A76.14,76.14,0,0,0,124,118.76"/></g></g><g id="Page-1-2"><g id="Fill-5-2"><path class="cls-3" d="M124,186.28a75.46,75.46,0,0,0,22.47,26.11A76,76,0,0,0,124,238.48a76.74,76.74,0,0,0-22.53-26.09A76.14,76.14,0,0,0,124,186.28"/></g></g><g id="Page-1-3"><g id="Fill-5-3"><path class="cls-3" d="M86,79.9A75.46,75.46,0,0,0,108.48,106,76,76,0,0,0,86,132.1,76.74,76.74,0,0,0,63.48,106,76.14,76.14,0,0,0,86,79.9"/></g></g><g id="Page-1-4"><g id="Fill-5-4"><path class="cls-3" d="M165,79.9A75.46,75.46,0,0,0,187.48,106,76,76,0,0,0,165,132.1,76.74,76.74,0,0,0,142.48,106,76.14,76.14,0,0,0,165,79.9"/></g></g><g id="Page-1-5"><g id="Fill-5-5"><path class="cls-3" d="M86,150.9A75.46,75.46,0,0,0,108.48,177,76,76,0,0,0,86,203.1,76.74,76.74,0,0,0,63.48,177,76.14,76.14,0,0,0,86,150.9"/></g></g><g id="Page-1-6"><g id="Fill-5-6"><path class="cls-3" d="M165,150.9A75.46,75.46,0,0,0,187.48,177,76,76,0,0,0,165,203.1,76.74,76.74,0,0,0,142.48,177,76.14,76.14,0,0,0,165,150.9"/></g></g><g id="Page-1-7"><g id="Fill-5-7"><path class="cls-3" d="M85.74,219.47a75.46,75.46,0,0,0,22.47,26.11,76,76,0,0,0-22.47,26.09,76.74,76.74,0,0,0-22.53-26.09,76.14,76.14,0,0,0,22.53-26.11"/></g></g><g id="Page-1-8"><g id="Fill-5-8"><path class="cls-3" d="M164.74,219.47a75.46,75.46,0,0,0,22.47,26.11,76,76,0,0,0-22.47,26.09,76.74,76.74,0,0,0-22.53-26.09,76.14,76.14,0,0,0,22.53-26.11"/></g></g></g></svg>