<svg id="top_row" data-name="top row" xmlns="http://www.w3.org/2000/svg" viewBox="0 0 250 350"><defs><style>.cls-1{fill:#c0b073;}.cls-2{isolation:isolate;}.cls-3{fill:#2b2b2b;}.cls-4{fill:none;stroke:#2b2b2b;stroke-miterlimit:10;}</style></defs><title>d-3</title><g id="_3_spades" data-name=" 3 spades"><rect class="cls-1" width="250" height="350" rx="10" ry="10"/><g class="cls-2"><path class="cls-3" d="M19.09,21.72c2,0,2.84-1.12,2.84-3.92,0-5.2-.76-6.88-3.12-6.88A3.7,3.7,0,0,0,15,13.2a3.58,3.58,0,0,1,1.36-.32,3,3,0,0,1,3,3.24,3.08,3.08,0,0,1-3.2,3.24c-1.92,0-3.2-1.4-3.2-3.52,0-3.24,3-5.48,7.28-5.48,4.6,0,7.84,2.4,7.84,5.8a4.83,4.83,0,0,1-1.28,3.28c-0.88,1-1.8,1.52-3.92,2.32,2.8,0.84,4,1.36,5.2,2.52a5.9,5.9,0,0,1,1.88,4.28c0,4.32-4.6,7.88-10.12,7.88-4.8,0-8.48-2.68-8.48-6.24,0-2.52,1.6-4.36,3.8-4.36a3.1,3.1,0,0,1,3.4,3.36,3.19,3.19,0,0,1-1,2.72,3.45,3.45,0,0,1-2.2.84A3.8,3.8,0,0,1,13.21,32a4,4,0,0,0,1.68,2.64,5.7,5.7,0,0,0,3.92,1.24c1.8,0,2.56-.36,3.4-1.6,0.72-1,.88-2,0.88-5.36,0-4.88-1.12-6.72-4.16-6.72H17.25l0-.52h1.8Z"/></g><path class="cls-4" d="M19.09,21.72c2,0,2.84-1.12,2.84-3.92,0-5.2-.76-6.88-3.12-6.88A3.7,3.7,0,0,0,15,13.2a3.58,3.58,0,0,1,1.36-.32,3,3,0,0,1,3,3q0,0.12,0,.25a3.08,3.08,0,0,1-2.91,3.24H16.16c-1.92,0-3.2-1.4-3.2-3.52,0-3.24,3-5.48,7.28-5.48,4.6,0,7.84,2.4,7.84,5.8a4.83,4.83,0,0,1-1.28,3.28c-0.88,1-1.8,1.52-3.92,2.32,2.8,0.84,4,1.36,5.2,2.52A5.9,5.9,0,0,1,30,28.56c0,4.32-4.6,7.88-10.12,7.88-4.8,0-8.48-2.68-8.48-6.24,0-2.52,1.6-4.36,3.8-4.36a3.1,3.1,0,0,1,3.4,3.36,3.19,3.19,0,0,1-1,2.72,3.45,3.45,0,0,1-2.2.84A3.8,3.8,0,0,1,13.21,32a4,4,0,0,0,1.68,2.64,5.7,5.7,0,0,0,3.92,1.24c1.8,0,2.56-.36,3.4-1.6,0.72-1,.88-2,0.88-5.36,0-4.88-1.12-6.72-4.16-6.72H17.25V21.68H19Z"/><g class="cls-2"><path class="cls-3" d="M229.24,329.36c-2,0-2.84,1.12-2.84,3.92,0,5.2.76,6.88,3.12,6.88a3.7,3.7,0,0,0,3.8-2.28,3.58,3.58,0,0,1-1.36.32,3.25,3.25,0,0,1,.24-6.48c1.92,0,3.2,1.4,3.2,3.52,0,3.24-3,5.48-7.28,5.48-4.6,0-7.84-2.4-7.84-5.8a4.83,4.83,0,0,1,1.28-3.28c0.88-1,1.8-1.52,3.92-2.32-2.8-.84-4-1.36-5.2-2.52a5.9,5.9,0,0,1-1.88-4.28c0-4.32,4.6-7.88,10.12-7.88,4.8,0,8.48,2.68,8.48,6.24,0,2.52-1.6,4.36-3.8,4.36a3.1,3.1,0,0,1-3.4-3.36,3.19,3.19,0,0,1,1-2.72,3.45,3.45,0,0,1,2.2-.84,3.8,3.8,0,0,1,2.12.72,4,4,0,0,0-1.68-2.64,5.7,5.7,0,0,0-3.92-1.24c-1.8,0-2.56.36-3.4,1.6-0.72,1-.88,2-0.88,5.36,0,4.88,1.12,6.72,4.16,6.72h1.68l0,0.52h-1.8Z"/></g><path class="cls-4" d="M229.24,329.36c-2,0-2.84,1.12-2.84,3.92,0,5.2.76,6.88,3.12,6.88a3.7,3.7,0,0,0,3.8-2.28,3.58,3.58,0,0,1-1.36.32,3.25,3.25,0,0,1,.24-6.48c1.92,0,3.2,1.4,3.2,3.52,0,3.24-3,5.48-7.28,5.48-4.6,0-7.84-2.4-7.84-5.8a4.83,4.83,0,0,1,1.28-3.28c0.88-1,1.8-1.52,3.92-2.32-2.8-.84-4-1.36-5.2-2.52a5.9,5.9,0,0,1-1.88-4.28c0-4.32,4.6-7.88,10.12-7.88,4.8,0,8.48,2.68,8.48,6.24,0,2.52-1.6,4.36-3.8,4.36a3.1,3.1,0,0,1-3.4-3.36,3.19,3.19,0,0,1,1-2.72,3.45,3.45,0,0,1,2.2-.84,3.8,3.8,0,0,1,2.12.72,4,4,0,0,0-1.68-2.64,5.7,5.7,0,0,0-3.92-1.24c-1.8,0-2.56.36-3.4,1.6-0.72,1-.88,2-0.88,5.36,0,4.88,1.12,6.72,4.16,6.72h1.68v0.52h-1.84Z"/><g id="Page-1"><g id="Fill-5"><path class="cls-3" d="M125,85.6a75.46,75.46,0,0,0,22.47,26.11A76,76,0,0,0,125,137.8a76.74,76.74,0,0,0-22.53-26.09A76.14,76.14,0,0,0,125,85.6"/></g></g><g id="Page-1-2"><g id="Fill-5-2"><path class="cls-3" d="M125,155.91A75.46,75.46,0,0,0,147.48,182,76,76,0,0,0,125,208.11,76.74,76.74,0,0,0,102.48,182,76.14,76.14,0,0,0,125,155.91"/></g></g><g id="Page-1-3"><g id="Fill-5-3"><path class="cls-3" d="M125,226.24a75.46,75.46,0,0,0,22.47,26.11A76,76,0,0,0,125,278.43a76.74,76.74,0,0,0-22.53-26.09A76.14,76.14,0,0,0,125,226.24"/></g></g></g></svg>