<svg id="top_row" data-name="top row" xmlns="http://www.w3.org/2000/svg" viewBox="0 0 250 350"><defs><style>.cls-1{fill:#c0b073;}.cls-2{isolation:isolate;}.cls-3{fill:#2b2b2b;}.cls-4{fill:none;stroke:#2b2b2b;stroke-miterlimit:10;}</style></defs><title>d-4</title><g id="_4_spades" data-name=" 4 spades"><rect class="cls-1" width="250" height="350" rx="10" ry="10"/><g class="cls-2"><path class="cls-3" d="M20.29,10.64h5.24V27.12h1.76c1,0,1.52-.52,2-2h0.44l-0.8,3.32h-3.4V33c-0.08,2.2.12,2.48,1.76,2.6h1.08V36H15.45V35.56h1.68c1.48-.16,1.68-0.52,1.72-2.8V28.48H10ZM18.85,27.12V14L11.33,27.12h7.52Z"/></g><path class="cls-4" d="M20.29,10.64h5.24V27.12h1.76c1,0,1.52-.52,2-2h0.44l-0.8,3.32h-3.4V33c-0.08,2.2.12,2.48,1.76,2.6h1.08V36H15.45V35.56h1.68c1.48-.16,1.68-0.52,1.72-2.8V28.48H10ZM18.85,27.12V14L11.33,27.12h7.52Z"/><g class="cls-2"><path class="cls-3" d="M228,340.43H222.8V324H221c-1,0-1.52.52-2,2H218.6l0.8-3.32h3.4v-4.48c0.08-2.2-.12-2.48-1.76-2.6H220V315h12.92v0.48H231.2c-1.48.16-1.68,0.52-1.72,2.8v4.28h8.84ZM229.48,324v13.12L237,324h-7.52Z"/></g><path class="cls-4" d="M228,340.43h-5.2V324H221c-1,0-1.52.52-2,2h-0.4l0.8-3.32h3.4V318.2c0.08-2.2-.12-2.48-1.76-2.6h-1V315h12.92v0.48H231.2c-1.48.16-1.68,0.52-1.72,2.8v4.28h8.84ZM229.48,324v13.12L237,324h-7.52Z"/><g id="Page-1"><g id="Fill-5"><path class="cls-3" d="M95,116.69a75.46,75.46,0,0,0,22.5,26.11A76,76,0,0,0,95,168.89,76.74,76.74,0,0,0,72.5,142.8,76.14,76.14,0,0,0,95,116.69"/></g></g><g id="Page-1-2"><g id="Fill-5-2"><path class="cls-3" d="M155.37,116.6a75.46,75.46,0,0,0,22.47,26.11,76,76,0,0,0-22.47,26.09,76.74,76.74,0,0,0-22.53-26.09,76.14,76.14,0,0,0,22.53-26.11"/></g></g><g id="Page-1-3"><g id="Fill-5-3"><path class="cls-3" d="M95,184.81a75.46,75.46,0,0,0,22.47,26.11A76,76,0,0,0,95,237a76.74,76.74,0,0,0-22.5-26.08A76.14,76.14,0,0,0,95,184.81"/></g></g><g id="Page-1-4"><g id="Fill-5-4"><path class="cls-3" d="M155.37,184.71a75.46,75.46,0,0,0,22.47,26.11,76,76,0,0,0-22.47,26.09,76.74,76.74,0,0,0-22.53-26.09,76.14,76.14,0,0,0,22.53-26.11"/></g></g></g></svg>