<svg id="top_row" data-name="top row" xmlns="http://www.w3.org/2000/svg" viewBox="0 0 250 350"><defs><style>.cls-1{fill:#c0b073;}.cls-2{isolation:isolate;}.cls-3{fill:#2b2b2b;}.cls-4{fill:none;stroke:#2b2b2b;stroke-miterlimit:10;}</style></defs><title>d-6</title><g id="_6_spades" data-name=" 6 spades"><rect class="cls-1" width="250" height="350" rx="10" ry="10"/><g class="cls-2"><path class="cls-3" d="M22.25,8.18a3.18,3.18,0,0,0-3,1.72c-1.28,2.4-1.56,4.08-1.56,9.72,0,0.2,0,1.28,0,2.24a4.8,4.8,0,0,1,1.2-2.2,4,4,0,0,1,3.64-1.6,6.81,6.81,0,0,1,7.12,7,8.75,8.75,0,0,1-8.48,9c-5.6,0-9.68-5.24-9.68-12.36,0-7.88,4.76-13.8,11-13.8,3.6,0,6.16,2,6.16,4.84a3.39,3.39,0,0,1-3.4,3.56A3.07,3.07,0,0,1,22.17,13a3.62,3.62,0,0,1,1.16-2.68,2.59,2.59,0,0,1,1.92-.72A3.16,3.16,0,0,0,22.25,8.18ZM17.89,25a23.06,23.06,0,0,0,1,6.92,2.27,2.27,0,0,0,2.28,1.6,2.19,2.19,0,0,0,2.12-1.2,30.22,30.22,0,0,0,.6-6.92,16,16,0,0,0-1.08-5.92,1.68,1.68,0,0,0-1.48-.88C19.21,18.62,17.89,21.06,17.89,25Z"/></g><path class="cls-4" d="M22.25,8.18a3.18,3.18,0,0,0-3,1.72C18,12.3,17.69,14,17.69,19.62v2.24a4.8,4.8,0,0,1,1.2-2.2,4,4,0,0,1,3.64-1.6,6.81,6.81,0,0,1,7.12,6.49q0,0.25,0,.51a8.75,8.75,0,0,1-8.48,9c-5.6,0-9.68-5.24-9.68-12.36,0-7.88,4.76-13.8,11-13.8,3.6,0,6.16,2,6.16,4.84a3.39,3.39,0,0,1-3.22,3.56H25.25a3.07,3.07,0,0,1-3.12-3q0-.09,0-0.18a3.62,3.62,0,0,1,1.16-2.68,2.59,2.59,0,0,1,2-.82A3.16,3.16,0,0,0,22.25,8.18ZM17.89,25a23.06,23.06,0,0,0,1,6.92,2.27,2.27,0,0,0,2.28,1.6,2.19,2.19,0,0,0,2.12-1.2,30.22,30.22,0,0,0,.6-6.92,16,16,0,0,0-1.08-5.92,1.68,1.68,0,0,0-1.48-.9C19.21,18.6,17.89,21.06,17.89,25Z"/><g class="cls-2"><path class="cls-3" d="M226.08,337.39a3.18,3.18,0,0,0,3-1.72c1.28-2.4,1.56-4.08,1.56-9.72,0-.2,0-1.28,0-2.24a4.81,4.81,0,0,1-1.2,2.2,4,4,0,0,1-3.64,1.6,6.81,6.81,0,0,1-7.12-7,8.75,8.75,0,0,1,8.48-9c5.6,0,9.68,5.24,9.68,12.36,0,7.88-4.76,13.8-11,13.8-3.6,0-6.16-2-6.16-4.84a3.39,3.39,0,0,1,3.4-3.56,3.07,3.07,0,0,1,3.12,3.2,3.62,3.62,0,0,1-1.16,2.68,2.58,2.58,0,0,1-1.92.72A3.16,3.16,0,0,0,226.08,337.39Zm4.36-16.84a23,23,0,0,0-1-6.92,2.27,2.27,0,0,0-2.28-1.6,2.19,2.19,0,0,0-2.12,1.2,30.21,30.21,0,0,0-.6,6.92,16,16,0,0,0,1.08,5.92A1.68,1.68,0,0,0,227,327C229.12,327,230.44,324.52,230.44,320.56Z"/></g><path class="cls-4" d="M226.08,337.39a3.18,3.18,0,0,0,3-1.72c1.28-2.4,1.56-4.08,1.56-9.72v-2.24a4.81,4.81,0,0,1-1.2,2.2,4,4,0,0,1-3.64,1.6,6.81,6.81,0,0,1-7.12-6.49q0-.25,0-0.51a8.75,8.75,0,0,1,8.48-9c5.6,0,9.68,5.24,9.68,12.36,0,7.88-4.76,13.8-11,13.8-3.6,0-6.16-2-6.16-4.84a3.39,3.39,0,0,1,3.22-3.56h0.18a3.07,3.07,0,0,1,3.12,3q0,0.09,0,.18a3.62,3.62,0,0,1-1.16,2.68,2.58,2.58,0,0,1-1.92.72A3.16,3.16,0,0,0,226.08,337.39Zm4.36-16.79a23,23,0,0,0-1-6.92,2.27,2.27,0,0,0-2.28-1.6,2.19,2.19,0,0,0-2.12,1.2,30.21,30.21,0,0,0-.6,6.92,16,16,0,0,0,1.08,5.92A1.68,1.68,0,0,0,227,327C229.12,327,230.44,324.52,230.44,320.6Z"/><g id="Page-1"><g id="Fill-5"><path class="cls-3" d="M95.28,83.68a75.46,75.46,0,0,0,22.47,26.11,76,76,0,0,0-22.47,26.09,76.74,76.74,0,0,0-22.53-26.09A76.14,76.14,0,0,0,95.28,83.68"/></g></g><g id="Page-1-2"><g id="Fill-5-2"><path class="cls-3" d="M154.78,83.68a75.46,75.46,0,0,0,22.47,26.11,76,76,0,0,0-22.47,26.09,76.74,76.74,0,0,0-22.53-26.09,76.14,76.14,0,0,0,22.53-26.11"/></g></g><g id="Page-1-3"><g id="Fill-5-3"><path class="cls-3" d="M95.28,150.68a75.46,75.46,0,0,0,22.47,26.11,76,76,0,0,0-22.47,26.09,76.74,76.74,0,0,0-22.53-26.09,76.14,76.14,0,0,0,22.53-26.11"/></g></g><g id="Page-1-4"><g id="Fill-5-4"><path class="cls-3" d="M154.78,150.68a75.46,75.46,0,0,0,22.47,26.11,76,76,0,0,0-22.47,26.09,76.74,76.74,0,0,0-22.53-26.09,76.14,76.14,0,0,0,22.53-26.11"/></g></g><g id="Page-1-5"><g id="Fill-5-5"><path class="cls-3" d="M95.28,219.35a75.46,75.46,0,0,0,22.47,26.15,76,76,0,0,0-22.47,26,76.74,76.74,0,0,0-22.53-26,76.14,76.14,0,0,0,22.53-26.11"/></g></g><g id="Page-1-6"><g id="Fill-5-6"><path class="cls-3" d="M154.78,219.35a75.46,75.46,0,0,0,22.47,26.15,76,76,0,0,0-22.47,26,76.74,76.74,0,0,0-22.53-26,76.14,76.14,0,0,0,22.53-26.11"/></g></g></g></svg>