<svg id="bottom_row" data-name="bottom row" xmlns="http://www.w3.org/2000/svg" viewBox="0 0 250 350"><defs><style>.cls-1{fill:#c0b073;}.cls-2{isolation:isolate;}.cls-3{fill:#2b2b2b;}.cls-4{fill:none;stroke:#2b2b2b;stroke-miterlimit:10;}</style></defs><title>d-7</title><g id="_7_spades" data-name=" 7 spades"><rect class="cls-1" width="250" height="350" rx="10" ry="10"/><g class="cls-2"><path class="cls-3" d="M14.17,11.68c1.84-2,3.16-2.76,5.16-2.76,1,0,1,0,5.68,1.52a5.15,5.15,0,0,0,1.6.24,2.84,2.84,0,0,0,2.24-.84l0.24,0.08c-0.36,4.36-.92,5.8-3.88,9.76S21.45,26,21.45,29.92A15.52,15.52,0,0,0,22.29,35H13.81c0-.76,0-1,0-1.64,0-4.36,2.16-7.76,7.84-12.2s6.08-5,6.84-9.48a8.25,8.25,0,0,1-2.56,2.76,6.39,6.39,0,0,1-3.64,1.12c-0.92,0-.92,0-5-1a3.4,3.4,0,0,0-.92-0.12,2.83,2.83,0,0,0-2.2,1,6,6,0,0,0-.92,2.88l-0.4,0a59.47,59.47,0,0,0,1-8.4h0.32v1.64Z"/></g><path class="cls-4" d="M14.17,11.68c1.84-2,3.16-2.76,5.16-2.76,1,0,1,0,5.68,1.52a5.15,5.15,0,0,0,1.6.24,2.84,2.84,0,0,0,2.24-.84l0.24,0.08c-0.36,4.36-.92,5.8-3.88,9.76S21.45,26,21.45,29.92A15.52,15.52,0,0,0,22.29,35H13.81V33.36c0-4.36,2.16-7.76,7.84-12.2s6.08-5,6.84-9.48a8.25,8.25,0,0,1-2.56,2.76,6.39,6.39,0,0,1-3.64,1.12c-0.92,0-.92,0-5-1a3.4,3.4,0,0,0-.92-0.12,2.83,2.83,0,0,0-2.2,1,6,6,0,0,0-.92,2.88h-0.4a59.47,59.47,0,0,0,1-8.4h0.32v1.76Z"/><g class="cls-2"><path class="cls-3" d="M234.16,337.4c-1.84,2-3.16,2.76-5.16,2.76-1,0-1,0-5.68-1.52a5.15,5.15,0,0,0-1.6-.24,2.84,2.84,0,0,0-2.24.84l-0.24-.08c0.36-4.36.92-5.8,3.88-9.76s3.76-6.36,3.76-10.24A15.53,15.53,0,0,0,226,314h8.48c0,0.76,0,1,0,1.64,0,4.36-2.16,7.76-7.84,12.2s-6.08,5-6.84,9.48a8.25,8.25,0,0,1,2.56-2.76,6.39,6.39,0,0,1,3.64-1.12c0.92,0,.92,0,5,1a3.4,3.4,0,0,0,.92.12,2.83,2.83,0,0,0,2.2-1,6,6,0,0,0,.92-2.88l0.4,0a59.54,59.54,0,0,0-1,8.4h-0.32V337.4Z"/></g><path class="cls-4" d="M234.16,337.4c-1.84,2-3.16,2.76-5.16,2.76-1,0-1,0-5.68-1.52a5.15,5.15,0,0,0-1.6-.24,2.84,2.84,0,0,0-2.24.84l-0.24-.08c0.36-4.36.92-5.8,3.88-9.76s3.76-6.36,3.76-10.24A15.53,15.53,0,0,0,226,314h8.48v1.64c0,4.36-2.16,7.76-7.84,12.2s-6.08,5-6.84,9.48a8.25,8.25,0,0,1,2.56-2.76,6.39,6.39,0,0,1,3.64-1.12c0.92,0,.92,0,5,1a3.4,3.4,0,0,0,.92.12,2.83,2.83,0,0,0,2.2-1,6,6,0,0,0,.92-2.88h0.4a59.54,59.54,0,0,0-1,8.4h-0.32V337.4h0Z"/><g id="Page-1"><g id="Fill-5"><path class="cls-3" d="M123.85,83.19a75.46,75.46,0,0,0,22.47,26.11,76,76,0,0,0-22.47,26.09,76.74,76.74,0,0,0-22.53-26.09,76.14,76.14,0,0,0,22.53-26.11"/></g></g><g id="Page-1-2"><g id="Fill-5-2"><path class="cls-3" d="M123.85,151.85A75.46,75.46,0,0,0,146.32,178a76,76,0,0,0-22.47,26,76.74,76.74,0,0,0-22.53-26,76.14,76.14,0,0,0,22.53-26.11"/></g></g><g id="Page-1-3"><g id="Fill-5-3"><path class="cls-3" d="M124,221.85A75.46,75.46,0,0,0,146.48,248,76,76,0,0,0,124,274a76.74,76.74,0,0,0-22.52-26A76.14,76.14,0,0,0,124,221.85"/></g></g><g id="Page-1-4"><g id="Fill-5-4"><path class="cls-3" d="M163.95,116.08a75.46,75.46,0,0,0,22.47,26.11,76,76,0,0,0-22.47,26.09,76.74,76.74,0,0,0-22.53-26.09,76.14,76.14,0,0,0,22.53-26.11"/></g></g><g id="Page-1-5"><g id="Fill-5-5"><path class="cls-3" d="M86.12,118.18a75.46,75.46,0,0,0,22.47,26.11,76,76,0,0,0-22.47,26.09,76.74,76.74,0,0,0-22.53-26.09,76.14,76.14,0,0,0,22.53-26.11"/></g></g><g id="Page-1-6"><g id="Fill-5-6"><path class="cls-3" d="M163.95,184.08a75.46,75.46,0,0,0,22.47,26.11,76,76,0,0,0-22.47,26.09,76.74,76.74,0,0,0-22.53-26.09,76.14,76.14,0,0,0,22.53-26.11"/></g></g><g id="Page-1-7"><g id="Fill-5-7"><path class="cls-3" d="M86.12,186.18a75.46,75.46,0,0,0,22.47,26.11,76,76,0,0,0-22.47,26.09,76.74,76.74,0,0,0-22.53-26.09,76.14,76.14,0,0,0,22.53-26.11"/></g></g></g></svg>