<svg id="bottom_row" data-name="bottom row" xmlns="http://www.w3.org/2000/svg" viewBox="0 0 250 350"><defs><style>.cls-1{fill:#c0b073;}.cls-2{isolation:isolate;}.cls-3{fill:#2b2b2b;}.cls-4{fill:none;stroke:#2b2b2b;stroke-miterlimit:10;}</style></defs><title>d-9</title><g id="_9_spades" data-name=" 9 spades"><rect class="cls-1" width="250" height="350" rx="10" ry="10"/><g class="cls-2"><path class="cls-3" d="M21.69,24.64a6.14,6.14,0,0,1-3.56,1c-4.16,0-6.84-2.84-6.84-7.28A8.83,8.83,0,0,1,20,9.24c5.6,0,9.88,5.16,9.88,11.92a17.1,17.1,0,0,1-3.56,10.6,10,10,0,0,1-7.64,3.72c-3.24,0-5.52-2-5.52-4.8a3,3,0,0,1,3.08-3.24,3.22,3.22,0,0,1,3.36,3,2.91,2.91,0,0,1-2.88,3c-0.2,0-.8,0-1.28-0.08a3.2,3.2,0,0,0,3.24,1.64c2.08,0,3-.88,3.84-3.4a25.79,25.79,0,0,0,.92-7.36c0-.56,0-1.24,0-2.24A5.14,5.14,0,0,1,21.69,24.64Zm-4.48-9.32a41.43,41.43,0,0,0,.4,7C18,24.08,18.81,25,19.93,25a3.17,3.17,0,0,0,2.6-1.76c0.72-1.36,1-2.88,1-5.68,0-5.24-1.16-7.92-3.4-7.92S17.21,11,17.21,15.32Z"/></g><path class="cls-4" d="M21.69,24.64a6.14,6.14,0,0,1-3.56,1c-4.16,0-6.84-2.84-6.84-7.28a8.83,8.83,0,0,1,8.53-9.12H20c5.6,0,9.88,5.16,9.88,11.92a17.1,17.1,0,0,1-3.56,10.6,10,10,0,0,1-7.64,3.72c-3.24,0-5.52-2-5.52-4.8a3,3,0,0,1,2.75-3.23h0.33a3.22,3.22,0,0,1,3.36,3,2.91,2.91,0,0,1-2.82,3H16.72a8.56,8.56,0,0,1-1.28-.08A3.2,3.2,0,0,0,18.68,35c2.08,0,3-.88,3.84-3.4a25.79,25.79,0,0,0,.92-7.36V22A5.14,5.14,0,0,1,21.69,24.64Zm-4.48-9.32a41.43,41.43,0,0,0,.4,7C18,24.08,18.81,25,19.93,25a3.17,3.17,0,0,0,2.6-1.76c0.72-1.36,1-2.88,1-5.68,0-5.24-1.16-7.92-3.4-7.92S17.21,11,17.21,15.32Z"/><g class="cls-2"><path class="cls-3" d="M226.64,324.44a6.14,6.14,0,0,1,3.56-1c4.16,0,6.84,2.84,6.84,7.28a8.83,8.83,0,0,1-8.72,9.12c-5.6,0-9.88-5.16-9.88-11.92a17.09,17.09,0,0,1,3.56-10.6,10,10,0,0,1,7.64-3.72c3.24,0,5.52,2,5.52,4.8a3,3,0,0,1-3.08,3.24,3.22,3.22,0,0,1-3.36-3,2.91,2.91,0,0,1,2.88-3c0.2,0,.8,0,1.28.08a3.2,3.2,0,0,0-3.24-1.64c-2.08,0-3,.88-3.84,3.4a25.77,25.77,0,0,0-.92,7.36c0,0.56,0,1.24,0,2.24A5.15,5.15,0,0,1,226.64,324.44Zm4.48,9.32a41.41,41.41,0,0,0-.4-7c-0.4-1.76-1.2-2.64-2.32-2.64a3.16,3.16,0,0,0-2.6,1.76c-0.72,1.36-1,2.88-1,5.68,0,5.24,1.16,7.92,3.4,7.92S231.12,338,231.12,333.76Z"/></g><path class="cls-4" d="M226.64,324.44a6.14,6.14,0,0,1,3.56-1c4.16,0,6.84,2.84,6.84,7.28a8.83,8.83,0,0,1-8.53,9.12h-0.19c-5.6,0-9.88-5.16-9.88-11.92a17.09,17.09,0,0,1,3.56-10.6,10,10,0,0,1,7.64-3.72c3.24,0,5.52,2,5.52,4.8a3,3,0,0,1-2.75,3.23h-0.33a3.22,3.22,0,0,1-3.36-3,2.91,2.91,0,0,1,2.82-3h0.06a8.56,8.56,0,0,1,1.28.08,3.2,3.2,0,0,0-3.24-1.64c-2.08,0-3,.88-3.84,3.4a25.77,25.77,0,0,0-.92,7.36v2.24A5.15,5.15,0,0,1,226.64,324.44Zm4.48,9.32a41.41,41.41,0,0,0-.4-7c-0.4-1.76-1.2-2.64-2.32-2.64a3.16,3.16,0,0,0-2.6,1.76c-0.72,1.36-1,2.88-1,5.68,0,5.24,1.16,7.92,3.4,7.92S231.12,338,231.12,333.76Z"/><g id="Page-1"><g id="Fill-5"><path class="cls-3" d="M124.44,103.62a75.46,75.46,0,0,0,22.47,26.11,76,76,0,0,0-22.47,26.11,76.74,76.74,0,0,0-22.53-26.09,76.14,76.14,0,0,0,22.53-26.13"/></g></g><g id="Page-1-2"><g id="Fill-5-2"><path class="cls-3" d="M125.65,172a75.46,75.46,0,0,0,22.47,26.11,76,76,0,0,0-22.47,26.09,76.74,76.74,0,0,0-22.53-26.09A76.14,76.14,0,0,0,125.65,172"/></g></g><g id="Page-1-3"><g id="Fill-5-3"><path class="cls-3" d="M125.65,238.91A75.46,75.46,0,0,0,148.12,265a76,76,0,0,0-22.47,26.09A76.74,76.74,0,0,0,103.12,265a76.14,76.14,0,0,0,22.53-26.11"/></g></g><g id="Page-1-4"><g id="Fill-5-4"><path class="cls-3" d="M84.61,69.32a75.46,75.46,0,0,0,22.47,26.11,76,76,0,0,0-22.47,26.09A76.74,76.74,0,0,0,62.08,95.43,76.14,76.14,0,0,0,84.61,69.32"/></g></g><g id="Page-1-5"><g id="Fill-5-5"><path class="cls-3" d="M85.79,139.73a75.46,75.46,0,0,0,22.47,26.11,76,76,0,0,0-22.47,26.09,76.74,76.74,0,0,0-22.53-26.09,76.14,76.14,0,0,0,22.53-26.11"/></g></g><g id="Page-1-6"><g id="Fill-5-6"><path class="cls-3" d="M85.79,208.62a75.46,75.46,0,0,0,22.47,26.11,76,76,0,0,0-22.47,26.09,76.74,76.74,0,0,0-22.53-26.09,76.14,76.14,0,0,0,22.53-26.11"/></g></g><g id="Page-1-7"><g id="Fill-5-7"><path class="cls-3" d="M167.06,69.32a75.46,75.46,0,0,0,22.47,26.11,76,76,0,0,0-22.47,26.09,76.74,76.74,0,0,0-22.53-26.09,76.14,76.14,0,0,0,22.53-26.11"/></g></g><g id="Page-1-8"><g id="Fill-5-8"><path class="cls-3" d="M168.25,139.73a75.46,75.46,0,0,0,22.47,26.11,76,76,0,0,0-22.47,26.09,76.74,76.74,0,0,0-22.53-26.09,76.14,76.14,0,0,0,22.53-26.11"/></g></g><g id="Page-1-9"><g id="Fill-5-9"><path class="cls-3" d="M168.25,208.62a75.46,75.46,0,0,0,22.47,26.11,76,76,0,0,0-22.47,26.09,76.74,76.74,0,0,0-22.53-26.09,76.14,76.14,0,0,0,22.53-26.11"/></g></g></g></svg>