<svg id="top_row" data-name="top row" xmlns="http://www.w3.org/2000/svg" viewBox="0 0 250 350"><defs><style>.cls-1{fill:#c0b073;}.cls-2{isolation:isolate;}.cls-3{fill:#2b2b2b;}.cls-4{fill:none;stroke:#2b2b2b;stroke-miterlimit:10;}</style></defs><title>d-a</title><g id="ace_spades" data-name="ace spades"><rect class="cls-1" width="250" height="350" rx="10" ry="10"/><g class="cls-2"><path class="cls-3" d="M10.89,35.4c2.72-.08,4.52-2.2,6.36-7.56L23.17,9.36h6l8,23.52c0.64,2.2,1,2.48,2.52,2.52h1.16V36H25.29V35.4h1.64c1.2,0,1.72-.36,1.72-1.12a5.13,5.13,0,0,0-.24-1.4L25.85,25H18.77l-0.88,2.76a12,12,0,0,0-.56,3.36c0,3,1.36,4.32,4.44,4.32V36H10.89V35.4Zm14.8-11L22.41,13.76l-3.52,10.6Z"/></g><path class="cls-4" d="M10.89,35.4c2.72-.08,4.52-2.2,6.36-7.56L23.17,9.36h6l8,23.52c0.64,2.2,1,2.48,2.52,2.52h1.16V36H25.29V35.4h1.64c1.2,0,1.72-.36,1.72-1.12a5.13,5.13,0,0,0-.24-1.4L25.85,25H18.77l-0.88,2.76a12,12,0,0,0-.56,3.36c0,3,1.36,4.32,4.44,4.32V36H10.89V35.4Zm14.8-11L22.41,13.76l-3.52,10.6Z"/><g class="cls-2"><path class="cls-3" d="M240.31,315.68c-2.72.08-4.52,2.2-6.36,7.56L228,341.71h-6l-8-23.52c-0.64-2.2-1-2.48-2.52-2.52h-1.16V315h15.52v0.64h-1.64c-1.2,0-1.72.36-1.72,1.12a5.11,5.11,0,0,0,.24,1.4l2.56,7.92h7.08l0.88-2.76a12,12,0,0,0,.56-3.36c0-3-1.36-4.32-4.44-4.32V315h10.88v0.64Zm-14.8,11,3.28,10.64,3.52-10.6Z"/></g><path class="cls-4" d="M240.31,315.68c-2.72.08-4.52,2.2-6.36,7.56L228,341.71h-6l-8-23.52c-0.64-2.2-1-2.48-2.52-2.52h-1.16V315h15.52v0.64H224.2c-1.2,0-1.72.36-1.72,1.12a5.11,5.11,0,0,0,.24,1.4l2.56,7.92h7.08l0.88-2.76a12,12,0,0,0,.56-3.36c0-3-1.36-4.32-4.44-4.32V315h10.88v0.64Zm-14.8,11,3.28,10.64,3.52-10.6Z"/><g id="Page-1"><g id="Fill-5"><path class="cls-3" d="M124.35,120.38q17,32,44.94,52.23a152.09,152.09,0,0,0-44.94,52.16,153.47,153.47,0,0,0-45.1-52.17q27.91-20.22,45.06-52.23"/></g></g></g></svg>