<?xml version="1.0" encoding="utf-8"?>
<!-- Generator: Adobe Illustrator 19.2.0, SVG Export Plug-In . SVG Version: 6.00 Build 0)  -->
<svg version="1.1" id="Layer_1" xmlns="http://www.w3.org/2000/svg" xmlns:xlink="http://www.w3.org/1999/xlink" x="0px" y="0px"
	 viewBox="0 0 253.5 64.9" style="enable-background:new 0 0 253.5 64.9;" xml:space="preserve">
<style type="text/css">
	.st0{enable-background:new    ;}
	.st1{fill:#C0B073;}
	.st2{fill:#2B2B2B;}
</style>
<g class="st0">
	<path class="st1" d="M0.7,10.1H13V25c2.1-2.8,3.5-3.6,6-3.6c5.5,0,9.1,5.1,9.1,12.7c0,8.4-5,14.7-11.5,14.7c-1.5,0-2.9-0.4-4.2-1.2
		C12,47.3,11.9,47,10,45c-1-1-1.8-1.4-2.6-1.4c-1.9,0-3,1.5-3.1,4.4H3.5V13.8c0-2.6-0.2-2.9-1.8-3h-1C0.7,10.8,0.7,10.1,0.7,10.1z
		 M13,43.9c0,3,0.8,4.1,3,4.1c0.9,0,1.7-0.6,2.1-1.8c0.3-0.9,0.3-0.9,0.5-7.2c-0.3-12.4-0.3-12.4-1.3-14.5c-0.2-0.6-0.9-0.9-1.5-0.9
		c-1.7,0-2.8,1.9-2.8,4.6C13,28.2,13,43.9,13,43.9z"/>
	<path class="st1" d="M45.3,9.6V44c0,1.9,0.6,2.8,2,2.9H49v0.7H31.7v-0.7h1.5c1.8-0.2,2.3-0.7,2.2-2.7V12.5c0.1-1.1-0.9-1.9-2.5-2.1
		H31V9.6H45.3z"/>
	<path class="st1" d="M78.7,41.8c0,4.6-1.9,6.7-5.9,6.7c-2.2,0-4.3-0.7-5.4-1.8c-0.7-0.7-1.3-1.8-1.8-3.5c-1.7,4.1-3.1,5.2-6.7,5.2
		c-5.2,0-8.3-2.5-8.3-6.8c0-1.7,0.6-3.3,1.7-4.7c0.9-1,2.8-1.9,5.8-2.5c3.1-0.6,5.6-1.7,6.6-3c0.7-0.9,1.1-3,1.1-5.3c0-3-1-4-3.6-4
		c-1.9,0-3.6,0.7-4.5,1.8c1.7,0.1,2.5,0.4,3.2,1.1c1,0.9,1.6,2.3,1.6,3.6c0,2.6-2.2,4.7-5,4.7c-2.7,0-4.9-2.2-4.9-5
		c0-4.2,4.6-7.1,11.3-7.1c4.3,0,7.6,1,9.5,3.1c1.4,1.5,1.7,2.6,1.7,6.2V45c0,1.1,0.3,1.7,0.9,1.7c1.4,0,2.2-2.1,2.2-6.2h0.6
		L78.7,41.8L78.7,41.8z M65.6,31.3c-0.8,0.8-1.5,1.5-1.8,1.7c-2.5,1.9-3,3-3.2,6.4v3.7c0,2.7,0.3,3.8,1.3,3.8c1.9,0,3.7-3.9,3.7-8.2
		V31.3z"/>
</g>
<g class="st0">
	<path class="st1" d="M105.8,38.2c0,6-4.5,10.3-10.9,10.3c-7.5,0-13.6-6-13.6-13.4c0-7.5,6.6-13.9,14.3-13.9c5.8,0,9.9,3.1,9.9,7.6
		c0,3.4-2.4,5.9-5.6,5.9c-3.1,0-5.5-2.4-5.5-5.5c0-2.9,2.1-5.2,4.8-5.2c0.5,0,1.3,0.1,2.2,0.2c-1.1-1.4-2.6-2.1-4.6-2.1
		c-3.5,0-4.8,3.1-4.8,11.9c0,10,1.2,13.1,5.1,13.1c3.3,0,6.2-2.1,7.5-5.5c0.6-1.4,0.9-2.7,0.9-3.8v-0.7h0.6v1.1H105.8z"/>
</g>
<g class="st0">
	<path class="st1" d="M121.6,9.6V33l3.6-5c0.9-1.1,1.3-2.1,1.3-2.9c0-1.3-1.2-2.3-2.9-2.3h-1.3v-0.9H136v0.9h-1.5
		c-2.2,0-4.8,1.4-6.7,3.5l-1.4,1.7l10.7,16.4c1,1.5,2.4,2.5,3.5,2.4h1.5v0.7h-17.3v-0.7c1.3-0.3,1.8-0.6,1.8-1
		c0-0.3-0.3-0.9-0.8-1.7l-4.4-7.2v8.5c0.1,1,0.5,1.3,2.1,1.4v0.7h-15.7v-0.7h1.4c2-0.2,2.6-1.3,2.6-4.7v-28
		c-0.1-3.2-0.5-3.8-2.6-3.9h-1.4V9.6H121.6z"/>
</g>
<g class="st0">
	<path class="st2" d="M146.3,25.1c0-1.7-0.5-2.1-2.3-2.2h-1.4v-0.7h13.7v27.9c0,5.4-4.2,8.6-10.9,8.6c-4.6,0-7.5-2-7.5-5
		c0-2.6,2-4.4,4.6-4.4c3,0,5.1,1.9,5.1,4.5c0,1.7-0.5,2.7-2,4c2.7,0,3.8-1.3,3.8-4.1c0-2.5-0.7-3.4-3.1-4.2L146.3,25.1L146.3,25.1z
		 M156.7,15.8c0,2.8-2.3,4.7-5.6,4.7s-5.3-1.8-5.3-4.8s2.2-4.8,5.6-4.8C154.6,10.9,156.7,12.9,156.7,15.8z"/>
	<path class="st2" d="M189.6,41.8c0,4.6-1.9,6.7-5.9,6.7c-2.2,0-4.3-0.7-5.4-1.8c-0.7-0.7-1.3-1.8-1.8-3.5c-1.7,4.1-3.1,5.2-6.7,5.2
		c-5.2,0-8.3-2.5-8.3-6.8c0-1.7,0.6-3.3,1.7-4.7c0.9-1,2.8-1.9,5.8-2.5c3.1-0.6,5.6-1.7,6.6-3c0.7-0.9,1.1-3,1.1-5.3c0-3-1-4-3.6-4
		c-1.9,0-3.6,0.7-4.5,1.8c1.7,0.1,2.5,0.4,3.2,1.1c1,0.9,1.6,2.3,1.6,3.6c0,2.6-2.2,4.7-5,4.7c-2.7,0-4.9-2.2-4.9-5
		c0-4.2,4.6-7.1,11.3-7.1c4.3,0,7.6,1,9.5,3.1c1.4,1.5,1.7,2.6,1.7,6.2V45c0,1.1,0.3,1.7,0.9,1.7c1.4,0,2.2-2.1,2.2-6.2h0.6v1.3
		H189.6z M176.6,31.3c-0.8,0.8-1.5,1.5-1.8,1.7c-2.5,1.9-3,3-3.2,6.4v3.7c0,2.7,0.3,3.8,1.3,3.8c1.9,0,3.7-3.9,3.7-8.2V31.3z"/>
</g>
<g class="st0">
	<path class="st2" d="M216.8,38.2c0,6-4.5,10.3-10.9,10.3c-7.5,0-13.6-6-13.6-13.4c0-7.5,6.6-13.9,14.3-13.9c5.8,0,9.9,3.1,9.9,7.6
		c0,3.4-2.4,5.9-5.6,5.9c-3.1,0-5.5-2.4-5.5-5.5c0-2.9,2.1-5.2,4.8-5.2c0.5,0,1.3,0.1,2.2,0.2c-1.1-1.4-2.6-2.1-4.6-2.1
		c-3.5,0-4.8,3.1-4.8,11.9c0,10,1.2,13.1,5.1,13.1c3.3,0,6.2-2.1,7.5-5.5c0.6-1.4,0.9-2.7,0.9-3.8v-0.7h0.6v1.1H216.8z"/>
</g>
<g class="st0">
	<path class="st2" d="M232.6,9.6V33l3.6-5c0.9-1.1,1.3-2.1,1.3-2.9c0-1.3-1.2-2.3-2.9-2.3h-1.3v-0.9H247v0.9h-1.5
		c-2.2,0-4.8,1.4-6.7,3.5l-1.4,1.7l10.7,16.4c1,1.5,2.4,2.5,3.5,2.4h1.5v0.7h-17.3v-0.7c1.3-0.3,1.8-0.6,1.8-1
		c0-0.3-0.3-0.9-0.8-1.7l-4.4-7.2v8.5c0.1,1,0.5,1.3,2.1,1.4v0.7H219v-0.7h1.4c2-0.2,2.6-1.3,2.6-4.7v-28c-0.1-3.2-0.5-3.8-2.6-3.9
		H219V9.6H232.6z"/>
</g>
</svg>
